<svg width="44" height="23" xmlns="http://www.w3.org/2000/svg"><g fill-rule="nonzero" fill="none"><path d="M41 10c-2 0-2-10-15-10S13.534 9.29 10.534 10.29V15H41v-5z" fill="#03071E"/><path d="M0 19.25S0 21 2 21h39c1.657 0 3-1.344 3-3v-5s0-3-3-3H15C5 10 0 14 0 16v3.25z" fill="#03071E"/><path d="M5 18c0 2.761 2.238 5 5 5s5-2.239 5-5-2.238-5-5-5-5 2.239-5 5m24 0c0 2.761 2.239 5 5 5s5-2.239 5-5-2.239-5-5-5-5 2.239-5 5" fill="#455A64"/><path d="M8 18c0 1.105.895 2 2 2s2-.895 2-2-.895-2-2-2-2 .895-2 2m24 0c0 1.105.895 2 2 2s2-.895 2-2-.895-2-2-2-2 .895-2 2" fill="#B0BEC5"/><path d="M42.5 13H44v4h-1.5c-.829 0-1.5-.672-1.5-1.5v-1c0-.828.671-1.5 1.5-1.5zM3 12.658V15.5c0 .828-.672 1.5-1.5 1.5H0v-1c0-.894 1.005-2.185 3-3.342z" fill="#FFC107"/><path d="M13.672 10c.293-.456.565-.945.841-1.445C16.048 5.764 17.955 2.329 25 2.03V10H13.672zM27 10V2.033c7.281.336 9.313 4.284 10.668 6.942.177.346.357.693.549 1.025H27z" fill="#B0B0B0"/></g></svg>