<svg width="28" height="28" fill="none" xmlns="http://www.w3.org/2000/svg"><path d="M24.2186 5.95671L6.99572 2.85513c-.63408-.11434-1.24075.30741-1.35508.9415L2.53906 21.0195c-.11375.6341.30741 1.2408.9415 1.3551l17.22294 3.1016c.6341.1143 1.2407-.3074 1.3551-.9415l3.1015-17.22291c.1144-.63408-.3074-1.24075-.9415-1.35508z" fill="url(#paint0_radial)"/><path d="M18.7277 14.7198c-.5408-.7787-1.6036-.9846-2.3964-.4649l-6.192 4.0583-.91762 5.0948 11.48172 2.0679c.6341.1143 1.2408-.3074 1.3551-.9415l.7181-3.9871-4.0489-5.8275z" fill="#436DCD"/><path d="M21.8556 25.0059l-9.6035-13.8227c-.5407-.7787-1.6035-.9847-2.39629-.4649l-6.19209 4.0582-1.12466 6.2429c-.11375.6341.30741 1.2407.9415 1.3551L20.7035 25.476c.4573.0823.8977-.1166 1.1521-.4701z" fill="url(#paint1_linear)"/><path opacity=".05" d="M20.9998 23.3336c.5063 0 .9718-.1656 1.3545-.4392l.9788-5.4367V5.79746L6.99572 2.85513c-.63408-.11434-1.24075.30741-1.35508.9415L2.53906 21.0195c-.11375.6341.30741 1.2408.9415 1.3551l5.32525.959H20.9998z" fill="#000"/><path opacity=".07" d="M5.64158 3.79663L2.61584 20.5966c-.02859.1575-.0665.735.0175.8575.05833.2736.22516.511.46025.6586.10441.0974.6895.238.8435.238l4.382.3996H20.306c.2532 0 1.1801-.0828 1.3714-.2199.322 0 .7449-1.1585.7449-1.4805l.3279-3.6727V5.69246L6.99609 2.85513c-.63409-.11434-1.24076.30741-1.35451.9415z" fill="#000"/><path d="M21.0002 2.3335H3.50016c-.64458 0-1.16666.52208-1.16666 1.16666V21.0002c0 .6445.52208 1.1666 1.16666 1.1666H21.0002c.6445 0 1.1666-.5221 1.1666-1.1666V3.50016c0-.64458-.5221-1.16666-1.1666-1.16666z" fill="url(#paint2_radial)"/><path d="M16.3335 8.75c.9665 0 1.75-.7835 1.75-1.75s-.7835-1.75-1.75-1.75-1.75.7835-1.75 1.75.7835 1.75 1.75 1.75z" fill="#FFF8DE"/><path d="M17.149 11.9314c-.6703-.6702-1.7529-.6848-2.4413-.0332l-5.3742 5.0919v5.1765h11.6667c.6445 0 1.1666-.5221 1.1666-1.1667v-4.0506l-5.0178-5.0179z" fill="#D6742D"/><path d="M22.0507 21.4991L10.149 9.59792c-.67025-.67025-1.75292-.68483-2.44125-.03325L2.3335 14.6566v6.3432c0 .6445.52208 1.1666 1.16666 1.1666H21.0002c.4649 0 .8627-.2736 1.0505-.6673z" fill="url(#paint3_linear)"/><defs><radialGradient id="paint0_radial" cx="0" cy="0" r="1" gradientUnits="userSpaceOnUse" gradientTransform="rotate(10.199 -117.68834536 156.7979396) scale(12.6391)"><stop stop-color="#BD8AF5"/><stop offset=".137" stop-color="#B88BF5"/><stop offset=".309" stop-color="#A88FF3"/><stop offset=".499" stop-color="#8F96F2"/><stop offset=".702" stop-color="#6B9EEF"/><stop offset=".913" stop-color="#3EAAEC"/><stop offset="1" stop-color="#29AFEA"/></radialGradient><radialGradient id="paint2_radial" cx="0" cy="0" r="1" gradientUnits="userSpaceOnUse" gradientTransform="translate(25.7351 19.123) scale(12.6391)"><stop stop-color="#FFCF7B"/><stop offset=".195" stop-color="#FECD76"/><stop offset=".439" stop-color="#FAC666"/><stop offset=".71" stop-color="#F3BC4D"/><stop offset=".997" stop-color="#EAAD29"/><stop offset="1" stop-color="#EAAD29"/></radialGradient><linearGradient id="paint1_linear" x1="14.3574" y1="11.0106" x2="11.9956" y2="24.1383" gradientUnits="userSpaceOnUse"><stop stop-color="#124787"/><stop offset=".923" stop-color="#173B75"/><stop offset="1" stop-color="#173A73"/></linearGradient><linearGradient id="paint3_linear" x1="12.1918" y1="9.05601" x2="12.1918" y2="22.3945" gradientUnits="userSpaceOnUse"><stop stop-color="#C26715"/><stop offset=".508" stop-color="#B85515"/><stop offset="1" stop-color="#AD3F16"/></linearGradient></defs></svg>