<svg version="1.1" id="Layer_1" xmlns="http://www.w3.org/2000/svg" x="0" y="0" viewBox="0 0 283.46 283.46" xml:space="preserve"><style>.st0{fill:#fff}</style><path class="st0" d="M251.36 83.03c-.02-.15-.02-.3-.06-.45-.04-.16-.11-.3-.17-.44-.06-.14-.1-.28-.17-.41-.08-.14-.18-.25-.28-.38-.09-.12-.17-.25-.27-.36-.11-.11-.24-.2-.37-.29-.11-.09-.21-.2-.34-.27L143.55 15.77c-1.14-.69-2.57-.69-3.71 0L33.76 80.47c-.12.07-.21.18-.32.26-.13.1-.27.19-.38.31-.11.11-.18.24-.27.36-.09.12-.2.24-.27.38-.08.13-.12.28-.17.43-.06.14-.13.28-.17.42-.04.15-.04.31-.06.46-.02.15-.06.29-.06.43l.23 118.73c0 1.26.67 2.42 1.75 3.06l105.88 62.41c.56.33 1.18.49 1.81.49.61 0 1.22-.16 1.77-.47.11-.06.2-.16.3-.23l105.63-62.25c1.08-.64 1.75-1.8 1.75-3.06l.23-118.73c0-.14-.04-.29-.05-.44zM141.7 22.98l99.07 60.35-99.05 55.1-99.03-55.06 99.01-60.39zM39.19 89.58l48.3 26.85 50.67 28.17v113.82L39.4 200.21l-.21-110.63zm204.87 110.58l-98.77 58.2V144.6l98.99-55.06-.22 110.62z"/><path class="st0" d="M169.21 217.21c-3.85 2.23-4.18 3.18-4.18 3.18l-1.68 9.65 6.12-1.56c.54-1.64 1.85-4.45 4.55-6.01l13.8-7.96s2.11-7.22 2.11-9.26c-3.43-5.04-10.04-12.51-11.31-19.7-.86-4.49-.53-9.08 5.66-13.16 8.87 9.16 33.36 30.33 33.36 30.33l10.32-17.31-.17-2.01s-12.48-2.12-18.82-6.5c13.79-22.45 14.69-43.96 14.85-46.49l4.28-2.46 1.65-6.38-1.24-.95-12.68 7.32c-3.76 2.17-6.45-.24-7.61-3.34l-8.83 6.95v10.02l8.19-2.62c1.06 9.28 2.9 21.62-4.12 33.9-12.05-8.56-24.95-25.93-27.49-30.03-6.5 3.95-12.1 18.36-12.1 18.36s10.46 4.36 16.01 7.86c-7.67 6.4-12.37 16.39-11.63 27.33.32 4.73 3.6 12.41 5.76 16.64l-.32 1.6-4.48 2.6zM80.38 84.68c1.68-.38 4.78-.66 7.48.86l13.87 7.85s7.29-1.85 9.05-2.88c2.6-5.52 5.68-15.02 11.23-19.76 3.44-3 7.55-5.07 14.21-1.81-3.38 12.3-9.19 44.14-9.19 44.14l20.13.09 1.67-1.16s-4.52-11.82-3.97-19.51c26.34.48 45.34-9.66 47.59-10.8l4.3 2.43 6.32-1.82.2-1.53-12.74-7.21c-3.77-2.14-3.08-5.68-.99-8.25l-10.47-4.07-8.63 5.08 6.42 5.74c-7.46 5.61-17.15 13.47-31.32 13.66 1.26-14.73 9.69-34.66 11.92-38.93-6.7-3.6-21.95-1.11-21.95-1.11s1.56 11.24 1.37 17.79c-9.42-3.36-20.41-2.34-29.45 3.85C103.5 70 98.55 76.73 96 80.75l-1.52.53-4.52-2.55c-3.88-2.2-4.86-1.98-4.86-1.98l-9.17 3.44 4.45 4.49zM107.69 154.2c-3.83-2.19-6.57-7.61-7.77-11.97l-9.01-3.35v9.76l8.35 6.84c1.08 10.24 2.97 24.38-4.2 28.27-12.3-22.14-25.48-53.84-28.07-60.73-6.64-3.61-12.36 3.99-12.36 3.99s10.69 16.23 16.36 26.01c-7.83-2.56-12.64 1.77-11.88 13.26.32 4.97 3.67 16.21 5.88 22.81l-.32 1.19-4.59-2.63c-3.93-2.26-4.26-1.7-4.26-1.7l-1.74 7.46 6.27 5.51c.54-.99 1.89-2.21 4.63-.63l14.08 8.06s2.17-4.61 2.17-6.59c-3.51-8.85-10.25-23.7-11.56-32.15-.86-5.33-.54-9.44 5.77-6.32 9.08 19.11 34.05 67.76 34.05 67.76l10.52-5.04-.15-2.13s-12.74-16.36-19.21-27.89c14.08-6.05 15-25.95 15.17-28.23l4.37 2.5 1.67-4.32-1.23-2.33-12.94-7.41z"/></svg>