<svg width="876" height="947" xmlns="http://www.w3.org/2000/svg">
  <path d="M753.86563097 205.00118152c-.13875748-5.52111904-4.79210752-12.44037502-10.38627764-15.04200867-2.39931785-1.11948152-4.80871552-2.19218273-7.20571016-3.20964659-104.48742642-44.35228112-206.58117703 6.93565444-309.29972256 33.28604977-60.22158958 15.44864244-120.65685145 22.3253709-181.91276743-3.67622277-.44276283-.18794168-.8819827-.37655217-1.32449384-.56764608l-.22469349-8.98615006c-.15928268-6.40435157-4.10494466-11.8249563-9.64178135-14.17520403-2.01406462-.85491971-4.23891104-1.3028443-6.5675759-1.24513884-8.73432768.2175179-15.63825152 7.47595009-15.42034288 16.20935726l6.52786077 261.5636816-.42666002 313.59779318c.11033507 4.36728968 1.97820672 8.27692208 4.91183023 11.0680622 1.36800711 1.30202785 2.96718433 2.35889172 4.72811011 3.10636036 2.01406462.85491971 4.23983154 1.30323503 6.56941692 1.2459203 8.73393694-.2165974 15.6382515-7.47595008 15.42034287-16.20935725l2.2919137-238.881389c.43199487.18771638.89277707.38439318 1.32357334.56725535 165.75254745 70.35778212 325.47000825-99.94269562 491.2115695-29.61021772 2.40804069 1.02215263 4.79665747 2.08494652 7.20755115 3.21042805.15598245.07272878.31221659.14230532.4659409.20755742 5.37206632 2.28030686 9.55356288.20192658 9.41898896-5.1729307-2.55363591-102.42942739-5.1098943-204.85779522-7.66707318-307.28655378z" fill="#000" fill-rule="nonzero"/>
</svg>
