<svg width="18" height="22" viewBox="0 0 18 22" fill="none" xmlns="http://www.w3.org/2000/svg">
<path d="M0.00170517 3.44715C0.0824013 4.48008 0.792538 5.60177 1.89809 6.44102C2.88663 7.19151 5.02915 8.34952 8.30142 7.70394C11.1581 7.13906 13.0868 8.3132 14.039 11.1941L11.2549 20.4824C11.2104 20.6364 11.2282 20.8018 11.3044 20.943C11.3806 21.0841 11.5092 21.1896 11.6625 21.2369C11.7189 21.2528 11.7773 21.261 11.836 21.2611C11.9663 21.261 12.0932 21.2189 12.1978 21.1412C12.3024 21.0635 12.3793 20.9541 12.417 20.8294L15.2172 11.4886C15.2513 11.4218 15.2732 11.3494 15.2817 11.2748L17.4606 4.00397C17.5097 3.9191 17.5374 3.82354 17.5413 3.72556L17.973 2.28915C17.9966 2.21288 18.0048 2.1327 17.9973 2.05322C17.9897 1.97375 17.9665 1.89656 17.9289 1.82611C17.8914 1.75567 17.8402 1.69336 17.7785 1.64278C17.7167 1.59221 17.6455 1.55437 17.569 1.53146C17.4926 1.50854 17.4123 1.501 17.3329 1.50927C17.2535 1.51754 17.1765 1.54146 17.1064 1.57965C17.0363 1.61783 16.9745 1.66953 16.9244 1.73174C16.8744 1.79396 16.8372 1.86547 16.815 1.94215L16.7383 2.20442C16.2145 1.61557 15.5514 1.16748 14.8097 0.901154C12.8931 0.182948 10.3471 0.44118 8.16827 1.57901C6.82869 2.27704 3.42327 3.80222 0.816746 2.82982C0.721193 2.79503 0.618444 2.78473 0.517889 2.79988C0.417332 2.81503 0.322176 2.85514 0.241114 2.91653C0.160051 2.97793 0.0956669 3.05867 0.0538445 3.15136C0.012022 3.24405 -0.00590324 3.34575 0.00170517 3.44715Z" fill="#1251F3"/>
</svg>
