<svg width="16" height="16" viewBox="0 0 16 16" fill="none" xmlns="http://www.w3.org/2000/svg">
<path d="M7.99987 7.99987H7.49987C7.49987 8.13248 7.55255 8.25965 7.64632 8.35342L7.99987 7.99987ZM7.99987 14.9665C4.15229 14.9665 1.0332 11.8475 1.0332 7.99987H0.0332031C0.0332031 12.3997 3.6 15.9665 7.99987 15.9665V14.9665ZM14.9665 7.99987C14.9665 11.8475 11.8475 14.9665 7.99987 14.9665V15.9665C12.3997 15.9665 15.9665 12.3997 15.9665 7.99987H14.9665ZM7.99987 1.0332C11.8475 1.0332 14.9665 4.15229 14.9665 7.99987H15.9665C15.9665 3.6 12.3997 0.0332031 7.99987 0.0332031V1.0332ZM7.99987 0.0332031C3.6 0.0332031 0.0332031 3.6 0.0332031 7.99987H1.0332C1.0332 4.15229 4.15229 1.0332 7.99987 1.0332V0.0332031ZM7.49987 3.19987V7.99987H8.49987V3.19987H7.49987ZM7.64632 8.35342L10.8463 11.5534L11.5534 10.8463L8.35342 7.64632L7.64632 8.35342Z" fill="#1251F3"/>
</svg>
