<svg width="48" height="76" viewBox="0 0 48 76" fill="none" xmlns="http://www.w3.org/2000/svg">
<path d="M19.0125 14.0303L24.4709 6.83769C25.8818 4.95379 25.5085 2.27695 23.6344 0.859101C21.7618 -0.559453 19.0983 -0.181968 17.6882 1.70124L11.252 10.1823C11.5521 10.2772 11.8445 10.396 12.1236 10.5401L19.0125 14.0303Z" fill="url(#paint0_radial)"/>
<path d="M25.7194 19.3012C25.8945 19.8467 25.9844 20.4063 25.9915 20.9637L34.081 10.2276C35.4918 8.34365 35.1165 5.66681 33.2438 4.24826C31.3697 2.82971 28.707 3.20719 27.2969 5.0904L20.1338 14.5978L22.9505 16.0248C24.2791 16.7095 25.2625 17.8728 25.7194 19.3012Z" fill="url(#paint1_radial)"/>
<path d="M25.6964 30.4303C26.4612 31.0096 27.3575 31.2886 28.2467 31.2886C29.5353 31.2886 30.8076 30.7017 31.642 29.5875L40.4457 17.998C41.8566 16.1148 41.4826 13.4379 39.6092 12.0187C38.8437 11.4394 37.9475 11.1597 37.0582 11.1597C35.769 11.1597 34.496 11.7466 33.6623 12.8615L24.8585 24.4503C23.4477 26.3335 23.8224 29.0111 25.6964 30.4303Z" fill="url(#paint2_radial)"/>
<path d="M41.7857 34.301C40.7601 35.671 39.1932 36.4555 37.4857 36.4555C36.3111 36.4555 35.1927 36.0794 34.2528 35.3681C33.1049 34.4992 32.3633 33.2318 32.1616 31.802C32.151 31.7261 32.1433 31.6509 32.1356 31.5756C31.0361 31.8927 29.865 32.2919 28.6307 32.7981C27.2276 33.3731 26.0797 34.9105 25.7496 36.066L24.3658 40.0012C24.3658 40.0012 22.5591 30.3096 15.8459 25.5029C13.4411 23.7806 9.93287 22.6299 9.93287 22.6299L10.3164 22.7631L16.9188 24.717C17.6977 24.9627 19.7123 25.5029 20.3977 25.5029C22.0152 25.5029 23.5757 24.6136 24.3658 23.0657C25.4878 20.8648 24.6231 18.1648 22.4327 17.0365L10.5086 11.0179C9.85203 10.6797 9.14627 10.5181 8.45035 10.5181C6.82513 10.5181 5.25685 11.3989 4.51102 12.9608C3.94233 14.1516 0.316511 21.5544 0.0149452 24.717C-0.0673 25.5781 0.202633 27.3326 0.512634 28.1389C2.36561 32.964 12.1816 45.5004 12.1816 45.5004L12.1816 70.259C12.1816 70.259 17.3875 75.5001 23.5854 75.5001C29.7833 75.5001 35.1997 70.2934 35.1997 70.2934L35.1997 49.0854C37.019 47.0616 39.1573 44.1071 40.997 40.0012C41.9417 37.8959 42.2334 35.4658 42.296 33.6135L41.7857 34.301Z" fill="url(#paint3_radial)"/>
<path d="M45.0211 20.9821C44.2556 20.4028 43.3593 20.123 42.4701 20.123C41.1816 20.123 39.9086 20.71 39.0742 21.8249L34.0973 28.4804C32.6872 30.3636 33.0618 33.0412 34.9352 34.4597C35.7007 35.0389 36.597 35.3187 37.4862 35.3187C38.774 35.3187 40.047 34.7318 40.8814 33.6169L44.0718 30.2063L46.6303 27.2352C48.0411 25.3506 46.8938 22.4006 45.0211 20.9821Z" fill="url(#paint4_radial)"/>
<defs>
<radialGradient id="paint0_radial" cx="0" cy="0" r="1" gradientUnits="userSpaceOnUse" gradientTransform="translate(19.4984 -0.0313599) rotate(90) scale(13.4339 82.8041)">
<stop stop-color="#6C7BFD"/>
<stop offset="1" stop-color="#2938B7"/>
</radialGradient>
<radialGradient id="paint1_radial" cx="0" cy="0" r="1" gradientUnits="userSpaceOnUse" gradientTransform="translate(28.8065 3.34988) rotate(90) scale(16.8275 87.0848)">
<stop stop-color="#6C7BFD"/>
<stop offset="1" stop-color="#2938B7"/>
</radialGradient>
<radialGradient id="paint2_radial" cx="0" cy="0" r="1" gradientUnits="userSpaceOnUse" gradientTransform="translate(34.1386 11.1147) rotate(90) scale(19.2733 101.764)">
<stop stop-color="#6C7BFD"/>
<stop offset="1" stop-color="#2938B7"/>
</radialGradient>
<radialGradient id="paint3_radial" cx="0" cy="0" r="1" gradientUnits="userSpaceOnUse" gradientTransform="translate(24.7824 10.3741) rotate(90) scale(61.6679 248.846)">
<stop stop-color="#6C7BFD"/>
<stop offset="1" stop-color="#2938B7"/>
</radialGradient>
<radialGradient id="paint4_radial" cx="0" cy="0" r="1" gradientUnits="userSpaceOnUse" gradientTransform="translate(41.4557 20.0891) rotate(90) scale(14.5497 82.4638)">
<stop stop-color="#6C7BFD"/>
<stop offset="1" stop-color="#2938B7"/>
</radialGradient>
</defs>
</svg>
