<svg width="24" height="24" fill="none" xmlns="http://www.w3.org/2000/svg"><path fill-rule="evenodd" clip-rule="evenodd" d="M1.5 4.125c0-.29837.11853-.58452.3295-.7955C2.04048 3.11853 2.32663 3 2.625 3h18.75c.1477 0 .294.0291.4305.08564.1365.05653.2605.1394.365.24386.1045.10447.1873.22849.2439.36498.0565.13649.0856.28278.0856.43052 0 .14774-.0291.29403-.0856.43052-.0566.13649-.1394.26051-.2439.36498-.1045.10446-.2285.18733-.365.24386-.1365.05654-.2828.08564-.4305.08564H2.625c-.29837 0-.58452-.11853-.7955-.3295C1.61853 4.70952 1.5 4.42337 1.5 4.125zm0 7.5c0-.2984.11853-.5845.3295-.7955.21098-.211.49713-.3295.7955-.3295h18.75c.2984 0 .5845.1185.7955.3295.211.211.3295.4971.3295.7955s-.1185.5845-.3295.7955c-.211.211-.4971.3295-.7955.3295H2.625c-.29837 0-.58452-.1185-.7955-.3295-.21097-.211-.3295-.4971-.3295-.7955zM2.625 18c-.29837 0-.58452.1185-.7955.3295-.21097.211-.3295.4971-.3295.7955s.11853.5845.3295.7955c.21098.211.49713.3295.7955.3295h18.75c.2984 0 .5845-.1185.7955-.3295.211-.211.3295-.4971.3295-.7955s-.1185-.5845-.3295-.7955c-.211-.211-.4971-.3295-.7955-.3295H2.625z" fill="#6B7AFC"/></svg>