<svg xmlns="http://www.w3.org/2000/svg" width="48" height="48"><path fill="#1976d2" d="M8 38V16c0-2.209 1.791-4 4-4h30c2.209 0 4 1.791 4 4v22c0 2.209-1.791 4-4 4H12c-2.209 0-4-1.791-4-4z"/><path fill="#2196f3" d="M5 35V13c0-2.209 1.791-4 4-4h30c2.209 0 4 1.791 4 4v22c0 2.209-1.791 4-4 4H9c-2.209 0-4-1.791-4-4z"/><path fill="#1e88e5" d="M6 8c-1.103 0-2 .897-2 2v22c0 1.103.897 2 2 2h30c1.103 0 2-.897 2-2V10c0-1.103-.897-2-2-2H6z"/><path fill="#bbdefb" d="M36 10v22H6V10h30m0-4H6c-2.209 0-4 1.791-4 4v22c0 2.209 1.791 4 4 4h30c2.209 0 4-1.791 4-4V10c0-2.209-1.791-4-4-4z"/><path fill="#fff59d" d="M30.5 13a2.5 2.5 0 100 5 2.5 2.5 0 100-5z"/><path fill="#bbdefb" d="M17 17L9 29h16z"/><path fill="#e1f5fe" d="M27.5 22L22 29h11z"/></svg>