<svg xmlns="http://www.w3.org/2000/svg" width="24" height="24" viewBox="0 0 24 24"><path d="M8 3C5.242188 3 3 5.242188 3 8v8c0 2.757812 2.242188 5 5 5h8c2.757812 0 5-2.242188 5-5V8c0-2.757812-2.242188-5-5-5zm0 2h8c1.652344 0 3 1.347656 3 3v8c0 1.652344-1.347656 3-3 3H8c-1.652344 0-3-1.347656-3-3V8c0-1.652344 1.347656-3 3-3zm9 1c-.550781 0-1 .449219-1 1s.449219 1 1 1 1-.449219 1-1-.449219-1-1-1zm-5 1c-2.757812 0-5 2.242188-5 5s2.242188 5 5 5 5-2.242188 5-5-2.242188-5-5-5zm0 2c1.652344 0 3 1.347656 3 3s-1.347656 3-3 3-3-1.347656-3-3 1.347656-3 3-3zm0 0" fill="#000"/></svg>