<svg xmlns="http://www.w3.org/2000/svg" width="50" height="50"><path d="M23.216 49.996c-1.454 0-1.588-1.891-1.66-2.915-.009-.128-.015-.234-.024-.299-.121-.732-.37-1.465-.633-2.239-.211-.62-.429-1.262-.587-1.929-.355-1.5-.669-2.634-1.477-3.551-.516-.586-.595-1.029-.646-1.548-.01-.104-.021-.224-.045-.365-.063-.368-.185-.776-.302-1.171l-.128-.437c-.42-1.488-.996-2.939-1.556-4.286-.057-.138-.146-.314-.246-.514-.567-1.133-1.517-3.027-.161-4.022.144-.106.278-.187.401-.258.018-.011.035-.021.053-.03.115-.864.275-1.334 1.117-1.978l.214-.156c.101-.072.252-.182.342-.266-.149-.274-.269-.657-.082-1.204.137-.398.401-.753.635-1.066.11-.148.224-.293.297-.429.121-.225.238-.452.355-.681.116-.226.232-.451.353-.676.739-1.373 1.336-2.756 1.824-4.229.508-1.531.896-3.059 1.155-4.541.129-.742.197-1.495.264-2.224.102-1.137.588-1.554 1.449-1.926.076-.033.101-.056.101-.056.002-.031-.002-.241-.006-.379-.012-.524-.031-1.401.771-2.061.76-.625 2.42-1.033 3.394-.272.037.029.068.052.095.07.058-.038.144-.099.268-.195.147-.114.168-.144.283-.636l.035-.182c.09-.546.228-1.371.961-1.656.359-.138.655-.101.856-.031.251-.187.506-.303.711-.396.129-.059.243-.11.323-.163.027-.038.059-.084.092-.133.338-.491.85-1.229 1.68-.892 1.052.435.611 1.618.319 2.401l-.026.075.014.027c.041.078.086.167.135.276.18.397.312 1.087.49 2.094.066.374.121.703.164.854.448 1.165.047 1.954-.17 2.38-.027.054-.055.104-.073.151-.301.791-.806 1.293-1.211 1.641-.317.273-.68.466-1 .636-.349.186-.71.377-.775.563-.053.149-.049.268-.034.5.027.428.072 1.144-.632 1.848-.527.53-1.963.821-3.365-.252-.366-.28-.891-.489-1.026-.456-.184.017-.627.477-.994 1.411-.057.144-.071.34-.089.566-.024.322-.054.724-.224 1.143-.18.447-.178.54-.106 1.135l.065.602c.043.418.085.829.162 1.255.032.181.055.342.06.49.624.053 1.44.23 1.925.646.316.271.492.633.495 1.02.007.944-.954 1.244-1.471 1.405l-.137.044c-.376.189-.815.504-1.129.819-.394.396-.64 1.041-.875 1.671.127.004.256.004.344.004h.223c.932.025 1.511-.014 1.98-.374.073-.057.155-.139.245-.224.434-.413 1.092-1.036 1.907-.821.279.073.781.313 1.016 1.09.307 1.019.084 2.329-.076 3.02-.036.153-.085.304-.136.455-.031.092-.068.201-.086.279.187.1.371.238.499.476.467.852-.091 1.854-.498 2.586-.053.094-.099.175-.13.238-.248.506-.508 1.006-.767 1.505-.246.474-.491.946-.728 1.425-.658 1.336-.953 2.501-1.021 4.021-.015.334.006.658.024.978.049.856.104 1.827-.402 2.844-.424.851-.623 1.768-.835 2.739l-.177.811c-.423 2.035-.915 3.866-2.277 3.926-.024-.002-.049-.001-.073-.001z" fill="#6E7DFF"/></svg>