<svg xmlns="http://www.w3.org/2000/svg" width="50" height="50"><path d="M5.8 19.7c-.151 0-.302-.034-.441-.103-.238-.117-.42-.324-.506-.576l-3.6-10.6c-.085-.251-.067-.526.051-.764s.326-.42.578-.504l21.1-7.1c.251-.085.528-.066.766.053s.419.328.502.581l3.5 10.6c.084.252.063.527-.057.764-.119.237-.328.417-.581.5l-6.699 2.2-14.289 4.895c-.105.036-.215.054-.324.054zM18.03583681 16.3467987l1.69935013 4.49981212-1.87102375.70659049-1.69935013-4.49981213zM31.96391769 22.34735716l1.87086338.707015-1.70037106 4.49942643-1.87086338-.70701499z"/><path d="M48.696 13.157c-.118-.239-.327-.421-.58-.505L28.104 5.98l1.543 4.674c.251.753.189 1.591-.167 2.295-.361.717-.98 1.25-1.744 1.501l-5.289 1.736-.197.604c-.17.523.113 1.085.634 1.259l21 7c.105.035.212.052.316.052.416 0 .804-.262.946-.676l3.6-10.5c.086-.253.068-.529-.05-.768zM7.5 31C4.467 31 2 28.532 2 25.5 2 22.467 4.467 20 7.5 20s5.5 2.467 5.5 5.5c0 3.032-2.467 5.5-5.5 5.5z"/><path d="M13.5 50H.5c-.276 0-.5-.224-.5-.5V35.299C0 32.658 2.4 31.212 5.162 31l5.724-.001 4.475-2.145 1.45-6.557c.243-1.214 1.491-2.05 2.788-1.788 1.246.25 2.05 1.5 1.792 2.789l-1.701 8.005c-.13.65-.626 1.446-1.177 1.887L14 36.843V49.5c0 .276-.224.5-.5.5zm29-13c-3.032 0-5.5-2.468-5.5-5.5s2.468-5.5 5.5-5.5 5.5 2.468 5.5 5.5-2.468 5.5-5.5 5.5z"/><path d="M49.5 50h-13c-.276 0-.5-.224-.5-.5v-7.157l-4.509-3.149c-.554-.442-1.05-1.238-1.182-1.895l-1.699-7.995c-.258-1.294.547-2.545 1.791-2.794 1.299-.259 2.545.573 2.789 1.792l1.449 6.554L39.113 37H45.8c2.669 0 4.2 1.53 4.2 4.199V49.5c0 .276-.224.5-.5.5z"/></svg>