<svg width="20" height="8" xmlns="http://www.w3.org/2000/svg">
  <path d="M19.09841956.37134343c-.0700692-.05308505-.15818364-.07963207-.24629575-.07645423L1.1362506.29348655C.92499346.2945314.755152.46437287.75410714.67563003L.754633 7.31695927c-.00211512.10403617.0392951.20489088.1125508.27814657.07325567.07325568.17411038.1146659.27814656.11255079l17.71587323.00140264c.21125707-.00104483.38109859-.17088635.38214342-.38214342l-.00052584-6.6413293c.00318256-.02866286.00318038-.05626415-.00000668-.08492744-.01699175-.07855917-.05839935-.1496893-.11891461-.20383537l-.02548031-.02548031zm-.6284082.69635565l.00046523 5.87698186-16.94303376-.00983415-.00895741-5.86848981 1.54568027.00012233.0001049 1.32486874.78133284.00006188-.0001049-1.32486875 1.39281071.0001103.00023405 2.9554764.78133284.00006187-.00023401-2.95547643 1.39281075.00011028.00010489 1.32486875.78133285.00006186-.00010489-1.32486876 1.39281075.00011028.00023399 2.95547646.78133285.00006185-.000234-2.95547645 1.39281076.00011028.00010489 1.32486875.78133285.00006186-.00010489-1.32486876 1.39281075.00011028.00023395 2.95547642.78133293.00006193-.00023407-2.95547652 1.39281075.00011027.00010493 1.32486879.78133285.00006186-.00010493-1.3248688 1.57965127.00012513z" fill="#000" fill-rule="nonzero"/>
</svg>
