<svg width="16" height="16" viewBox="0 0 16 16" fill="none" xmlns="http://www.w3.org/2000/svg">
<path d="M4.80036 7.99987L9.06702 7.99987M11.7337 4.26654L9.06702 7.99498L11.7337 11.7332M15.467 2.66515C15.467 3.84198 14.5113 4.79709 13.3337 4.79709C12.1561 4.79709 11.2004 3.84198 11.2004 2.66515C11.2004 1.48831 12.1561 0.533203 13.3337 0.533203C14.5113 0.533203 15.467 1.48831 15.467 2.66515ZM15.467 13.3248C15.467 14.5017 14.5113 15.4568 13.3337 15.4568C12.1561 15.4568 11.2004 14.5017 11.2004 13.3248C11.2004 12.148 12.1561 11.1929 13.3337 11.1929C14.5113 11.1929 15.467 12.148 15.467 13.3248ZM4.80036 7.995C4.80036 9.17183 3.84462 10.1269 2.66702 10.1269C1.48942 10.1269 0.533691 9.17183 0.533691 7.995C0.533691 6.81816 1.48942 5.86305 2.66702 5.86305C3.84462 5.86305 4.80036 6.81816 4.80036 7.995Z" stroke="#1251F3" stroke-linecap="square"/>
</svg>
