<svg xmlns="http://www.w3.org/2000/svg" width="48" height="48"><path fill="#9C2C0A" d="M15.28264683 13.00527447l1.8782005-.6872866 2.98969675 8.17017217-1.8782005.6872866zM27.84924728 24.48957022l2.98926896-8.1703287 1.87823648.68718826-2.98926896 8.1703287z"/><path fill="#D32F2F" d="M39.2 20.8L24 15.6c-.5-.2-.8-.7-.6-1.3l1.9-5.7c.2-.5.7-.8 1.3-.6l15.2 5.1c.5.2.8.7.6 1.3l-1.9 5.7c-.2.6-.8.8-1.3.7z"/><path fill="#EF9A9A" d="M31.63383129 15.03649432l.63940717-1.89503522 1.89503522.63940718-.63940718 1.89503521zM35.4274591 16.33876154l.63940718-1.89503522 1.89503521.63940718-.63940717 1.89503521zM27.84151158 13.73544184l.63940718-1.89503522 1.89503521.63940717-.63940717 1.89503522z"/><path fill="#607D8B" d="M20 20l-1.9-.5-1.7 5.8c-.1.4-.4.8-.7 1L12.2 29H8c-2.2 0-4 1.8-4 4v10h10v-8.8l5.4-5.8c.2-.2.4-.5.5-.8l1.5-5.2c.3-1-.3-2.1-1.4-2.4zm20 13h-4.7l-3-2.7c-.3-.3-.5-.6-.6-1L30 22.5l-2 .5c-1.1.3-1.7 1.4-1.5 2.4l1.5 6.2c.1.3.2.6.5.9l4.4 4.9V43h11v-6c.1-2.2-1.7-4-3.9-4z"/><path fill="#FFB74D" d="M9 19a4 4 0 100 8 4 4 0 100-8zm29 4a4 4 0 100 8 4 4 0 100-8z"/><path fill="#F44336" d="M24.5 12.1L9.3 17.2c-.5.2-1.1-.1-1.3-.6l-1.9-5.7c-.1-.6.1-1.1.7-1.3L22 4.5c.5-.2 1.1.1 1.3.6l1.9 5.7c.1.5-.2 1.1-.7 1.3z"/><g fill="#FFCDD2"><path d="M14.32539033 10.18037711l1.89560362-.63772011.63772011 1.8956036-1.89560361.63772012zM18.149657 8.97400605l1.8956036-.63772011.63772012 1.89560361-1.8956036.63772012zM10.5346048 11.4816872l1.89560361-.63772012.63772012 1.89560361-1.89560362.63772012z"/></g></svg>