<svg width="19" height="16" viewBox="0 0 19 16" fill="none" xmlns="http://www.w3.org/2000/svg">
<path d="M0.958753 7.78258C2.82914 6.75231 4.91701 5.89245 6.86781 5.02818C10.2239 3.61258 13.5934 2.22151 16.9969 0.926448C17.6591 0.705781 18.8489 0.489981 18.9655 1.47131C18.9017 2.86038 18.6389 4.24131 18.4586 5.62225C18.0011 8.65905 17.4723 11.6854 16.9566 14.7122C16.7789 15.7204 15.5159 16.2424 14.7078 15.5972C12.7657 14.2853 10.8086 12.9862 8.89127 11.644C8.26321 11.0058 8.84561 10.0893 9.40654 9.63358C11.0061 8.05718 12.7025 6.71785 14.2185 5.05998C14.6275 4.07245 13.4192 4.90471 13.0207 5.15971C10.8308 6.66878 8.69454 8.26998 6.38574 9.59625C5.20641 10.2454 3.83187 9.69065 2.65307 9.32838C1.59613 8.89078 0.0473129 8.44991 0.958646 7.78265L0.958753 7.78258Z" fill="white"/>
</svg>
