<?xml version="1.0" encoding="UTF-8"?>
<svg width="51px" height="51px" viewBox="0 0 51 51" version="1.1" xmlns="http://www.w3.org/2000/svg" xmlns:xlink="http://www.w3.org/1999/xlink">
    <title>icons8-time(1)</title>
    <g id="Page-1" stroke="none" stroke-width="1" fill="none" fill-rule="evenodd">
        <g id="icons8-time(1)" fill="#000000" fill-rule="nonzero">
            <path d="M25.5,28.5 C26.6,28.5 27.6,27.9 28.1,27 L35.5,27 C36.35,27 37,26.35 37,25.5 C37,24.65 36.35,24 35.5,24 L28.1,24 C27.85,23.55 27.45,23.15 27,22.9 L27,10.5 C27,9.65 26.35,9 25.5,9 C24.65,9 24,9.65 24,10.5 L24,22.9 C23.1,23.4 22.5,24.4 22.5,25.5 C22.5,27.15 23.85,28.5 25.5,28.5 Z" id="Shape"></path>
            <path d="M25.5,50.75 C39.4,50.75 50.75,39.4 50.75,25.5 C50.75,11.6 39.4,0.25 25.5,0.25 C11.6,0.25 0.25,11.6 0.25,25.5 C0.25,39.4 11.6,50.75 25.5,50.75 Z M25.5,3.25 C37.75,3.25 47.75,13.25 47.75,25.5 C47.75,37.75 37.75,47.75 25.5,47.75 C13.25,47.75 3.25,37.75 3.25,25.5 C3.25,13.25 13.25,3.25 25.5,3.25 Z" id="Shape"></path>
        </g>
    </g>
</svg>