<svg width="16" height="14" viewBox="0 0 16 14" fill="none" xmlns="http://www.w3.org/2000/svg">
<path d="M7.5208 4.0051L7.55438 4.55873L6.99479 4.49094C4.95791 4.23107 3.17843 3.34977 1.66756 1.86964L0.928908 1.13523L0.73865 1.67757C0.33575 2.88653 0.593158 4.16328 1.43253 5.02198C1.8802 5.49653 1.77948 5.56432 1.00725 5.28185C0.73865 5.19146 0.503625 5.12367 0.481242 5.15756C0.4029 5.23666 0.6715 6.26484 0.884142 6.67159C1.17513 7.23652 1.76828 7.79016 2.4174 8.11782L2.96579 8.37769L2.31668 8.38899C1.68994 8.38899 1.66756 8.40029 1.73471 8.63756C1.95854 9.37198 2.84268 10.1516 3.82755 10.4905L4.52143 10.7278L3.91708 11.0894C3.02175 11.6091 1.96973 11.9029 0.917717 11.9255C0.414092 11.9368 0 11.982 0 12.0159C0 12.1289 1.36538 12.7616 2.15999 13.0102C4.54382 13.7446 7.37531 13.4282 9.50173 12.1741C11.0126 11.2815 12.5235 9.50756 13.2286 7.79016C13.6091 6.87497 13.9896 5.20276 13.9896 4.40055C13.9896 3.88081 14.0232 3.81302 14.6499 3.19159C15.0192 2.83003 15.3662 2.43458 15.4333 2.32159C15.5452 2.10692 15.534 2.10692 14.9633 2.29899C14.012 2.63796 13.8777 2.59276 14.3477 2.08432C14.6947 1.72276 15.1088 1.06744 15.1088 0.875359C15.1088 0.841463 14.9409 0.897957 14.7506 0.999645C14.5492 1.11263 14.1015 1.28211 13.7658 1.3838L13.1614 1.57588L12.613 1.20302C12.3108 0.999645 11.8856 0.773671 11.6617 0.705879C11.0909 0.547697 10.218 0.570295 9.70318 0.751074C8.30422 1.25951 7.42008 2.57016 7.5208 4.0051Z" fill="white"/>
</svg>
