<svg width="21" height="21" viewBox="0 0 21 21" fill="none" xmlns="http://www.w3.org/2000/svg">
<path fill-rule="evenodd" clip-rule="evenodd" d="M10.5276 19.9017H10.5237C8.9314 19.9012 7.36679 19.5016 5.97716 18.7437L0.933594 20.0667L2.28334 15.1366C1.45075 13.6937 1.01265 12.057 1.01336 10.3802C1.01545 5.13449 5.28347 0.866699 10.5276 0.866699C13.0727 0.867798 15.4615 1.85861 17.2577 3.65697C19.054 5.45525 20.0427 7.84559 20.0417 10.3877C20.0396 15.6322 15.7733 19.8996 10.5276 19.9017ZM6.2108 17.0213L6.49956 17.1927C7.71368 17.9131 9.10542 18.2944 10.5244 18.2949H10.5276C14.8861 18.2949 18.4335 14.7475 18.4352 10.3872C18.4361 8.27417 17.6143 6.28742 16.1213 4.79269C14.6283 3.29796 12.6429 2.47439 10.5307 2.47366C6.16884 2.47366 2.62141 6.02077 2.61968 10.3807C2.61906 11.8749 3.03714 13.3301 3.82872 14.5891L4.01674 14.8883L3.21788 17.8064L6.2108 17.0213ZM14.9952 12.4361C15.161 12.5162 15.273 12.5703 15.3208 12.6501C15.3802 12.7492 15.3802 13.2252 15.1822 13.7806C14.984 14.3359 14.0343 14.8427 13.5775 14.9109C13.168 14.9722 12.6497 14.9977 12.0802 14.8167C11.7349 14.7072 11.2922 14.5609 10.725 14.316C8.49635 13.3536 6.99026 11.1936 6.70561 10.7854C6.68568 10.7568 6.67173 10.7368 6.66395 10.7264L6.66203 10.7238C6.53623 10.556 5.69326 9.43126 5.69326 8.26722C5.69326 7.1722 6.23115 6.59824 6.47874 6.33405C6.4957 6.31595 6.51131 6.2993 6.52528 6.28404C6.74318 6.04604 7.00074 5.98654 7.15921 5.98654C7.31767 5.98654 7.47632 5.98801 7.61483 5.99496C7.63192 5.99582 7.6497 5.99572 7.66808 5.99561C7.80661 5.9948 7.97932 5.99379 8.1497 6.40304C8.21524 6.56054 8.31115 6.79403 8.41231 7.04029C8.61687 7.5383 8.84288 8.08855 8.88265 8.16818C8.94209 8.28718 8.9817 8.42595 8.90246 8.58468C8.89057 8.60847 8.87957 8.63093 8.86906 8.65239C8.80954 8.7739 8.76576 8.86328 8.66475 8.98122C8.62503 9.0276 8.58398 9.07759 8.54293 9.12758C8.46114 9.22719 8.37936 9.32678 8.30815 9.39772C8.18914 9.51626 8.06525 9.64487 8.20393 9.88287C8.3426 10.1209 8.8197 10.8993 9.52641 11.5297C10.2861 12.2073 10.9464 12.4937 11.281 12.6389C11.3464 12.6672 11.3993 12.6902 11.4382 12.7096C11.6758 12.8287 11.8145 12.8087 11.9532 12.6501C12.0918 12.4915 12.5474 11.9559 12.7059 11.718C12.8643 11.4801 13.0229 11.5197 13.2407 11.599C13.4587 11.6784 14.6274 12.2535 14.8652 12.3724C14.9116 12.3957 14.955 12.4166 14.9952 12.4361Z" fill="#FDFDFD"/>
</svg>
