<svg xmlns="http://www.w3.org/2000/svg" xmlns:xlink="http://www.w3.org/1999/xlink" viewBox="0 0 1035.15 732.14"><defs><style>.cls-1{opacity:0.87;}.cls-1,.cls-39,.cls-40{fill:url(#radial-gradient);}.cls-2{fill:url(#linear-gradient);}.cls-3{fill:url(#linear-gradient-2);}.cls-4{fill:#5a69eb;}.cls-5{fill:url(#linear-gradient-3);}.cls-6{fill:url(#linear-gradient-4);}.cls-7{fill:url(#linear-gradient-5);}.cls-8{fill:url(#linear-gradient-6);}.cls-9{fill:url(#linear-gradient-7);}.cls-10{fill:url(#linear-gradient-8);}.cls-11{fill:url(#linear-gradient-9);}.cls-12{fill:url(#linear-gradient-10);}.cls-13{fill:url(#linear-gradient-11);}.cls-14{fill:url(#linear-gradient-12);}.cls-15{fill:url(#linear-gradient-13);}.cls-16{fill:url(#linear-gradient-14);}.cls-17{fill:url(#linear-gradient-15);}.cls-18{fill:url(#linear-gradient-16);}.cls-19{fill:url(#linear-gradient-17);}.cls-20{fill:url(#linear-gradient-18);}.cls-21{fill:url(#linear-gradient-19);}.cls-22{fill:url(#linear-gradient-20);}.cls-23{fill:url(#linear-gradient-21);}.cls-24{fill:url(#linear-gradient-22);}.cls-25,.cls-90,.cls-91{fill:none;stroke-miterlimit:10;}.cls-25{stroke:#fff;stroke-width:1.34px;}.cls-26{font-size:26.28px;font-family:LexendDeca-Regular, Lexend Deca;}.cls-26,.cls-45{fill:#fff;}.cls-27{fill:url(#linear-gradient-23);}.cls-28{fill:url(#linear-gradient-24);}.cls-29{fill:url(#linear-gradient-25);}.cls-30{fill:url(#linear-gradient-26);}.cls-31{fill:url(#linear-gradient-27);}.cls-32{fill:url(#linear-gradient-28);}.cls-33{fill:url(#linear-gradient-29);}.cls-34{fill:url(#linear-gradient-30);}.cls-35{fill:url(#linear-gradient-31);}.cls-36{fill:url(#linear-gradient-32);}.cls-37{fill:url(#linear-gradient-33);}.cls-38{fill:#211989;}.cls-39{opacity:0.45;}.cls-40{opacity:0.97;}.cls-41{fill:url(#linear-gradient-34);}.cls-42{fill:url(#linear-gradient-35);}.cls-43{fill:url(#linear-gradient-36);}.cls-44{fill:url(#linear-gradient-37);}.cls-46{fill:url(#linear-gradient-38);}.cls-47{fill:url(#linear-gradient-39);}.cls-48{fill:url(#linear-gradient-40);}.cls-49{fill:url(#linear-gradient-41);}.cls-50{fill:url(#linear-gradient-42);}.cls-51{fill:url(#linear-gradient-43);}.cls-52{fill:#2405c1;}.cls-53{fill:#06bf06;}.cls-54{fill:url(#linear-gradient-44);}.cls-55{fill:url(#linear-gradient-45);}.cls-56{fill:url(#linear-gradient-46);}.cls-57{fill:url(#linear-gradient-47);}.cls-58{fill:url(#linear-gradient-48);}.cls-59{fill:url(#linear-gradient-49);}.cls-60{fill:url(#linear-gradient-50);}.cls-61{fill:url(#linear-gradient-51);}.cls-62{fill:url(#linear-gradient-52);}.cls-63{fill:url(#linear-gradient-53);}.cls-64{fill:url(#linear-gradient-54);}.cls-65{fill:url(#linear-gradient-55);}.cls-66{fill:url(#linear-gradient-56);}.cls-67{fill:url(#linear-gradient-57);}.cls-68{fill:url(#linear-gradient-58);}.cls-69{fill:url(#linear-gradient-59);}.cls-70{fill:url(#linear-gradient-60);}.cls-71{fill:url(#linear-gradient-61);}.cls-72{fill:url(#linear-gradient-62);}.cls-73{fill:url(#linear-gradient-63);}.cls-74{fill:url(#linear-gradient-64);}.cls-75{fill:url(#linear-gradient-65);}.cls-76{fill:url(#linear-gradient-66);}.cls-77{fill:#2e3192;}.cls-78{fill:url(#linear-gradient-67);}.cls-79{fill:url(#linear-gradient-68);}.cls-80{fill:url(#linear-gradient-69);}.cls-81{fill:url(#linear-gradient-70);}.cls-82{fill:url(#linear-gradient-71);}.cls-83{fill:url(#linear-gradient-72);}.cls-84{fill:url(#linear-gradient-73);}.cls-85{fill:url(#linear-gradient-74);}.cls-86{fill:url(#linear-gradient-75);}.cls-87{fill:#3a373a;}.cls-88{fill:url(#linear-gradient-76);}.cls-89{fill:#4f4f4f;}.cls-90,.cls-91{stroke:#e900fc;stroke-linecap:round;stroke-width:7px;}.cls-91{stroke-dasharray:49.68 49.68;}.cls-92{fill:#e900fc;}.cls-93{fill:#662d91;}.cls-94{fill:url(#linear-gradient-77);}</style><radialGradient id="radial-gradient" cx="483.9" cy="453.68" r="932" gradientUnits="userSpaceOnUse"><stop offset="0" stop-color="#5a69eb"/><stop offset="1" stop-color="#2938b7"/></radialGradient><linearGradient id="linear-gradient" x1="423.21" y1="173.77" x2="433.82" y2="362.29" xlink:href="#radial-gradient"/><linearGradient id="linear-gradient-2" x1="346.62" y1="84.06" x2="446.18" y2="175.97" xlink:href="#radial-gradient"/><linearGradient id="linear-gradient-3" x1="382.97" y1="264.29" x2="471.52" y2="264.29" xlink:href="#radial-gradient"/><linearGradient id="linear-gradient-4" x1="292.48" y1="167.07" x2="227.09" y2="372.08" xlink:href="#radial-gradient"/><linearGradient id="linear-gradient-5" x1="222.83" y1="69.4" x2="281.35" y2="280.7" xlink:href="#radial-gradient"/><linearGradient id="linear-gradient-6" x1="278.12" y1="277.5" x2="330.54" y2="277.5" xlink:href="#radial-gradient"/><linearGradient id="linear-gradient-7" x1="336.52" y1="267.73" x2="293.8" y2="280.08" gradientUnits="userSpaceOnUse"><stop offset="0" stop-color="#5a69eb"/><stop offset="0.22" stop-color="#4c5bdd"/><stop offset="0.71" stop-color="#3342c1"/><stop offset="1" stop-color="#2938b7"/></linearGradient><linearGradient id="linear-gradient-8" x1="241.93" y1="359.04" x2="246.64" y2="302.48" xlink:href="#radial-gradient"/><linearGradient id="linear-gradient-9" x1="247.74" y1="282.74" x2="243.55" y2="324.11" xlink:href="#radial-gradient"/><linearGradient id="linear-gradient-10" x1="197.21" y1="358.08" x2="259.37" y2="358.08" xlink:href="#radial-gradient"/><linearGradient id="linear-gradient-11" x1="244.14" y1="354.37" x2="215.86" y2="346.9" xlink:href="#radial-gradient"/><linearGradient id="linear-gradient-12" x1="624.16" y1="285.16" x2="634.76" y2="473.68" xlink:href="#radial-gradient"/><linearGradient id="linear-gradient-13" x1="547.57" y1="195.45" x2="647.13" y2="287.35" xlink:href="#radial-gradient"/><linearGradient id="linear-gradient-14" x1="583.91" y1="375.68" x2="672.47" y2="375.68" xlink:href="#radial-gradient"/><linearGradient id="linear-gradient-15" x1="493.43" y1="278.45" x2="428.04" y2="483.47" xlink:href="#radial-gradient"/><linearGradient id="linear-gradient-16" x1="423.78" y1="180.79" x2="482.3" y2="392.09" xlink:href="#radial-gradient"/><linearGradient id="linear-gradient-17" x1="479.07" y1="388.89" x2="531.49" y2="388.89" xlink:href="#radial-gradient"/><linearGradient id="linear-gradient-18" x1="537.46" y1="379.12" x2="494.75" y2="391.47" xlink:href="#linear-gradient-7"/><linearGradient id="linear-gradient-19" x1="442.87" y1="470.43" x2="447.59" y2="413.87" xlink:href="#radial-gradient"/><linearGradient id="linear-gradient-20" x1="448.68" y1="394.13" x2="444.5" y2="435.5" xlink:href="#radial-gradient"/><linearGradient id="linear-gradient-21" x1="398.16" y1="469.47" x2="460.32" y2="469.47" xlink:href="#radial-gradient"/><linearGradient id="linear-gradient-22" x1="445.08" y1="465.76" x2="416.8" y2="458.29" xlink:href="#radial-gradient"/><linearGradient id="linear-gradient-23" x1="825.95" y1="408.32" x2="836.55" y2="596.84" xlink:href="#radial-gradient"/><linearGradient id="linear-gradient-24" x1="749.36" y1="318.61" x2="848.92" y2="410.51" xlink:href="#radial-gradient"/><linearGradient id="linear-gradient-25" x1="785.7" y1="498.84" x2="874.26" y2="498.84" xlink:href="#radial-gradient"/><linearGradient id="linear-gradient-26" x1="695.22" y1="401.61" x2="629.82" y2="606.63" xlink:href="#radial-gradient"/><linearGradient id="linear-gradient-27" x1="625.57" y1="303.95" x2="684.09" y2="515.25" xlink:href="#radial-gradient"/><linearGradient id="linear-gradient-28" x1="680.86" y1="512.05" x2="733.28" y2="512.05" xlink:href="#radial-gradient"/><linearGradient id="linear-gradient-29" x1="739.25" y1="502.28" x2="696.54" y2="514.63" xlink:href="#linear-gradient-7"/><linearGradient id="linear-gradient-30" x1="644.66" y1="593.59" x2="649.38" y2="537.03" xlink:href="#radial-gradient"/><linearGradient id="linear-gradient-31" x1="650.47" y1="517.29" x2="646.28" y2="558.66" xlink:href="#radial-gradient"/><linearGradient id="linear-gradient-32" x1="599.95" y1="592.63" x2="662.11" y2="592.63" xlink:href="#radial-gradient"/><linearGradient id="linear-gradient-33" x1="646.87" y1="588.91" x2="618.59" y2="581.45" xlink:href="#radial-gradient"/><linearGradient id="linear-gradient-34" x1="317.28" y1="579.67" x2="331.63" y2="553.49" gradientUnits="userSpaceOnUse"><stop offset="0" stop-color="#fc00fc"/><stop offset="1" stop-color="#480ba8"/></linearGradient><linearGradient id="linear-gradient-35" x1="325.65" y1="588.35" x2="339.9" y2="562.35" xlink:href="#linear-gradient-34"/><linearGradient id="linear-gradient-36" x1="303.24" y1="585.67" x2="361.87" y2="478.69" gradientUnits="userSpaceOnUse"><stop offset="0" stop-color="#efc36a"/><stop offset="1" stop-color="#c99a49"/></linearGradient><linearGradient id="linear-gradient-37" x1="313.84" y1="479.01" x2="361.58" y2="391.89" gradientUnits="userSpaceOnUse"><stop offset="0" stop-color="#3f2a06"/><stop offset="1" stop-color="#231805"/></linearGradient><linearGradient id="linear-gradient-38" x1="241.99" y1="526.45" x2="258.88" y2="526.45" xlink:href="#linear-gradient-37"/><linearGradient id="linear-gradient-39" x1="227.27" y1="517.17" x2="244.15" y2="517.17" xlink:href="#linear-gradient-37"/><linearGradient id="linear-gradient-40" x1="250.12" y1="518.05" x2="259.28" y2="518.05" xlink:href="#linear-gradient-36"/><linearGradient id="linear-gradient-41" x1="235.33" y1="507.1" x2="244.49" y2="507.1" xlink:href="#linear-gradient-36"/><linearGradient id="linear-gradient-42" x1="181.18" y1="354.82" x2="241.52" y2="371.07" xlink:href="#linear-gradient-36"/><linearGradient id="linear-gradient-43" x1="316.8" y1="405.72" x2="242.55" y2="374.39" xlink:href="#linear-gradient-36"/><linearGradient id="linear-gradient-44" x1="267.59" y1="413.75" x2="251.92" y2="405.05" xlink:href="#linear-gradient-36"/><linearGradient id="linear-gradient-45" x1="235.56" y1="412.55" x2="268.62" y2="352.22" xlink:href="#linear-gradient-36"/><linearGradient id="linear-gradient-46" x1="234.64" y1="374.46" x2="267.28" y2="374.46" xlink:href="#linear-gradient-37"/><linearGradient id="linear-gradient-47" x1="375.98" y1="465.54" x2="303.47" y2="434.95" gradientTransform="matrix(1.14, 0.02, 0.02, 1.07, -35.23, -36.18)" xlink:href="#linear-gradient-36"/><linearGradient id="linear-gradient-48" x1="382.39" y1="427.09" x2="372.33" y2="435.5" xlink:href="#linear-gradient-36"/><linearGradient id="linear-gradient-49" x1="244.36" y1="559.23" x2="168.29" y2="527.14" gradientTransform="matrix(-0.13, 1.15, 1.1, 0.23, -266.6, 121.15)" xlink:href="#linear-gradient-36"/><linearGradient id="linear-gradient-50" x1="233.04" y1="524" x2="222.99" y2="532.41" gradientTransform="matrix(-0.13, 1.01, 1.03, 0.19, -234.12, 163.74)" xlink:href="#linear-gradient-36"/><linearGradient id="linear-gradient-51" x1="357.01" y1="534.43" x2="312.56" y2="465.21" xlink:href="#linear-gradient-34"/><linearGradient id="linear-gradient-52" x1="380.16" y1="465.49" x2="364.5" y2="456.79" gradientTransform="matrix(0.81, 0.01, 0.01, 0.86, 33.99, 60.3)" xlink:href="#linear-gradient-36"/><linearGradient id="linear-gradient-53" x1="316.41" y1="459.56" x2="343.71" y2="409.77" xlink:href="#linear-gradient-36"/><linearGradient id="linear-gradient-54" x1="324.15" y1="441.75" x2="343.16" y2="407.05" xlink:href="#linear-gradient-37"/><linearGradient id="linear-gradient-55" x1="157.79" y1="298.94" x2="139.71" y2="283.96" gradientTransform="matrix(-0.66, 0.96, -0.98, -0.55, 590.94, 429.81)" xlink:href="#linear-gradient-36"/><linearGradient id="linear-gradient-56" x1="186" y1="514.18" x2="109.64" y2="396.71" xlink:href="#linear-gradient-37"/><linearGradient id="linear-gradient-57" x1="180.57" y1="517.72" x2="104.2" y2="400.25" xlink:href="#linear-gradient-37"/><linearGradient id="linear-gradient-58" x1="191.86" y1="510.37" x2="115.5" y2="392.9" xlink:href="#linear-gradient-36"/><linearGradient id="linear-gradient-59" x1="187.07" y1="513.49" x2="110.7" y2="396.02" xlink:href="#linear-gradient-36"/><linearGradient id="linear-gradient-60" x1="240.99" y1="483.86" x2="161.74" y2="361.96" xlink:href="#linear-gradient-36"/><linearGradient id="linear-gradient-61" x1="159.24" y1="454.93" x2="183.7" y2="454.93" xlink:href="#linear-gradient-37"/><linearGradient id="linear-gradient-62" x1="235.43" y1="482.05" x2="159.07" y2="364.58" xlink:href="#linear-gradient-36"/><linearGradient id="linear-gradient-63" x1="161.54" y1="390.27" x2="174.2" y2="349.46" xlink:href="#linear-gradient-36"/><linearGradient id="linear-gradient-64" x1="232.22" y1="455.57" x2="170.27" y2="360.27" xlink:href="#linear-gradient-37"/><linearGradient id="linear-gradient-65" x1="158.07" y1="320.26" x2="160.31" y2="330.04" gradientTransform="translate(-49.02 16.6) rotate(-7.55)" xlink:href="#linear-gradient-36"/><linearGradient id="linear-gradient-66" x1="188.59" y1="430.61" x2="154.48" y2="378.13" gradientUnits="userSpaceOnUse"><stop offset="0" stop-color="#d4b900"/><stop offset="1" stop-color="#bf5b00"/></linearGradient><linearGradient id="linear-gradient-67" x1="135.19" y1="482.73" x2="140.23" y2="452.5" xlink:href="#linear-gradient-36"/><linearGradient id="linear-gradient-68" x1="126.13" y1="477.28" x2="130.59" y2="450.5" gradientTransform="matrix(1, -0.03, 0.03, 1.1, -14.38, -43.9)" xlink:href="#linear-gradient-36"/><linearGradient id="linear-gradient-69" x1="134.72" y1="462.42" x2="138.14" y2="441.9" gradientUnits="userSpaceOnUse"><stop offset="0" stop-color="#1369b7"/><stop offset="1" stop-color="#19129e"/></linearGradient><linearGradient id="linear-gradient-70" x1="291.73" y1="683.74" x2="84.8" y2="365.43" xlink:href="#linear-gradient-36"/><linearGradient id="linear-gradient-71" x1="203.01" y1="514.3" x2="124.58" y2="393.66" xlink:href="#linear-gradient-36"/><linearGradient id="linear-gradient-72" x1="130" y1="418.26" x2="140.69" y2="383.82" xlink:href="#linear-gradient-36"/><linearGradient id="linear-gradient-73" x1="277.28" y1="610.18" x2="108.86" y2="351.1" xlink:href="#linear-gradient-37"/><linearGradient id="linear-gradient-74" x1="316.05" y1="704.66" x2="103.82" y2="378.18" xlink:href="#linear-gradient-37"/><linearGradient id="linear-gradient-75" x1="213.55" y1="536.12" x2="134.2" y2="414.06" xlink:href="#linear-gradient-36"/><linearGradient id="linear-gradient-76" x1="389.14" y1="535.94" x2="496.69" y2="535.94" gradientUnits="userSpaceOnUse"><stop offset="0" stop-color="#191619"/><stop offset="1" stop-color="#1e1c1e"/></linearGradient><linearGradient id="linear-gradient-77" x1="749.36" y1="318.44" x2="848.92" y2="410.34" xlink:href="#radial-gradient"/></defs><title>Asset 1</title><g id="Layer_2" data-name="Layer 2"><g id="Layer_2-2" data-name="Layer 2"><path class="cls-1" d="M456.55,175.8C243.7,185.59-5.4,323.15.09,469.14c5.51,146.52,266,261.65,474.72,263C699.17,733.57,966,604.19,967.78,459,969.66,310.86,695.32,164.81,456.55,175.8Z"/><path class="cls-2" d="M514,148.87V300.2L343.65,398.57V247.24ZM474.7,273.51v-68.1a2.06,2.06,0,0,0-3.08-1.79L471,204l-84.57,48.83a6.89,6.89,0,0,0-3.45,6v68.12a2,2,0,0,0,3.08,1.77l85.2-49.18A6.92,6.92,0,0,0,474.7,273.51Z"/><path class="cls-3" d="M438.45,3.41,514,148.87,343.65,247.24l-76.1-146.46a5.27,5.27,0,0,0-6-2.66l-.07-.18L429.65.85A6.35,6.35,0,0,1,438.45,3.41Z"/><path class="cls-4" d="M474.7,205.41v68.1a6.92,6.92,0,0,1-3.45,6l-85.2,49.18a2,2,0,0,1-3.08-1.77v-4.3a2,2,0,0,0,3,1.73l82.24-47.49a6.66,6.66,0,0,0,3.33-5.77V205.33A2,2,0,0,0,471,204l.63-.36A2.06,2.06,0,0,1,474.7,205.41Z"/><path class="cls-5" d="M471.52,205.33v65.75a6.66,6.66,0,0,1-3.33,5.77L386,324.34a2,2,0,0,1-3-1.73V258.79a6.89,6.89,0,0,1,3.45-6L471,204A2,2,0,0,1,471.52,205.33Z"/><path class="cls-6" d="M343.65,247.24V398.57L265,353.17V284.09a9.25,9.25,0,0,0-1.1-5.16l0-.06s0,0,0,0a10.72,10.72,0,0,0-4.17-4.41l-30-17.3a2.68,2.68,0,0,0-4,2.33v71L173.27,300.2V148.87ZM330.54,311V271.4a2.52,2.52,0,0,0-1.26-2.19l-47.37-27.35a2.53,2.53,0,0,0-3.79,2.19v39.56a2.52,2.52,0,0,0,1.26,2.19l47.37,27.35A2.53,2.53,0,0,0,330.54,311Z"/><path class="cls-7" d="M267.55,100.78l76.1,146.46L173.27,148.87l87-50.22a4.81,4.81,0,0,1,1.29-.53A5.27,5.27,0,0,1,267.55,100.78Z"/><path class="cls-8" d="M330.54,309.46V311a2.53,2.53,0,0,1-3.79,2.19L279.38,285.8a2.52,2.52,0,0,1-1.26-2.19V244.05a2.53,2.53,0,0,1,3.79-2.19l47.37,27.35a2.52,2.52,0,0,1,1.26,2.19v.17a2.44,2.44,0,0,0-1.21-2.1l-47.68-27.35a1.08,1.08,0,0,0-1.63.93v40.22a2.41,2.41,0,0,0,1.23,2.09l45.64,26.2A2.44,2.44,0,0,0,330.54,309.46Z"/><path class="cls-9" d="M330.54,271.57v37.89a2.44,2.44,0,0,1-3.65,2.1l-45.64-26.2a2.41,2.41,0,0,1-1.23-2.09V243.05a1.08,1.08,0,0,1,1.63-.93l47.68,27.35A2.44,2.44,0,0,1,330.54,271.57Z"/><path class="cls-10" d="M263.92,278.93a9.25,9.25,0,0,1,1.1,5.16v67.17l-37.33-21.84V260.68a2.56,2.56,0,0,1,3.83-2.26q14.22,8.38,28.45,16.76a9.21,9.21,0,0,1,3.9,3.66s0,0,0,0Z"/><path class="cls-11" d="M265,351.26v1.91l-39.32-22.7v-71a2.68,2.68,0,0,1,4-2.33l30,17.3a10.72,10.72,0,0,1,4.17,4.41,9.21,9.21,0,0,0-3.9-3.66q-14.24-8.37-28.45-16.76a2.56,2.56,0,0,0-3.83,2.26v68.74Z"/><path class="cls-12" d="M259.29,353.86a2.75,2.75,0,0,1-.33,2.19,1.78,1.78,0,0,1-.52.46L236.29,369.3a3,3,0,0,1-3,0L198.17,349a1.72,1.72,0,0,1-.56-.5,2.6,2.6,0,0,1-.33-2.08,1.34,1.34,0,0,0,.08.48,1.57,1.57,0,0,0,.27.53,1.82,1.82,0,0,0,.54.49l35.1,20.26a3,3,0,0,0,3,0l22.15-12.79h0a2.91,2.91,0,0,0,.24-.18.85.85,0,0,0,.19-.19l0,0a.83.83,0,0,0,.08-.12,1.6,1.6,0,0,0,.2-.39A1.77,1.77,0,0,0,259.29,353.86Z"/><path d="M259.29,353.86a1.77,1.77,0,0,1-.09.64,1.6,1.6,0,0,1-.2.39,2.33,2.33,0,0,0,.15-1.62C259.2,353.46,259.25,353.65,259.29,353.86Z"/><path d="M259.29,353.86c0-.21-.09-.4-.14-.59A1.75,1.75,0,0,1,259.29,353.86Z"/><path class="cls-13" d="M259.15,353.27a2.33,2.33,0,0,1-.15,1.62.83.83,0,0,1-.08.12,1.47,1.47,0,0,1-.21.22l-.24.18h0l-22.15,12.79a3,3,0,0,1-3,0L198.17,348a1.82,1.82,0,0,1-.54-.49,2.32,2.32,0,0,1-.1-2,1.64,1.64,0,0,1,.64-.64l22-12.69a3,3,0,0,1,3,0l35.25,20.35A1.64,1.64,0,0,1,259.15,353.27Z"/><path d="M258.92,355l0,0a.85.85,0,0,1-.19.19A1.47,1.47,0,0,0,258.92,355Z"/><path d="M258.47,355.41l.24-.18A2.91,2.91,0,0,1,258.47,355.41Z"/><path d="M197.63,347.46a1.57,1.57,0,0,1-.27-.53,1.34,1.34,0,0,1-.08-.48,5.74,5.74,0,0,1,.25-1A2.32,2.32,0,0,0,197.63,347.46Z"/><path d="M197.53,345.46a5.74,5.74,0,0,0-.25,1A1.67,1.67,0,0,1,197.53,345.46Z"/><path class="cls-14" d="M715,260.26V411.59L544.6,510V358.63ZM675.65,384.9V316.8a2.06,2.06,0,0,0-3.09-1.79l-.62.36L587.37,364.2a6.9,6.9,0,0,0-3.46,6V438.3a2.05,2.05,0,0,0,3.09,1.77l85.2-49.18A6.92,6.92,0,0,0,675.65,384.9Z"/><path class="cls-15" d="M639.39,114.8,715,260.26,544.6,358.63,468.49,212.17a5.26,5.26,0,0,0-6-2.66l-.06-.18L630.6,112.24A6.34,6.34,0,0,1,639.39,114.8Z"/><path class="cls-4" d="M675.65,316.8v68.1a6.92,6.92,0,0,1-3.45,6L587,440.07a2.05,2.05,0,0,1-3.09-1.77V434a2,2,0,0,0,3,1.73l82.25-47.49a6.66,6.66,0,0,0,3.33-5.77V316.72a2,2,0,0,0-.53-1.35l.62-.36A2.06,2.06,0,0,1,675.65,316.8Z"/><path class="cls-16" d="M672.47,316.72v65.75a6.66,6.66,0,0,1-3.33,5.77l-82.25,47.49a2,2,0,0,1-3-1.73V370.18a6.9,6.9,0,0,1,3.46-6l84.57-48.83A2,2,0,0,1,672.47,316.72Z"/><path class="cls-17" d="M544.6,358.63V510L466,464.56V395.48a9.07,9.07,0,0,0-1.1-5.16s0,0,0-.06a0,0,0,0,1,0,0,10.68,10.68,0,0,0-4.18-4.41l-30-17.3a2.68,2.68,0,0,0-4,2.33v71l-52.43-30.27V260.26Zm-13.11,63.72V382.79a2.52,2.52,0,0,0-1.26-2.19l-47.37-27.35a2.53,2.53,0,0,0-3.79,2.19V395a2.52,2.52,0,0,0,1.26,2.19l47.37,27.35A2.53,2.53,0,0,0,531.49,422.35Z"/><path class="cls-18" d="M468.49,212.17,544.6,358.63,374.22,260.26l87-50.22a4.89,4.89,0,0,1,1.28-.53A5.26,5.26,0,0,1,468.49,212.17Z"/><path class="cls-19" d="M531.49,420.85v1.5a2.53,2.53,0,0,1-3.79,2.19l-47.37-27.35a2.52,2.52,0,0,1-1.26-2.19V355.44a2.53,2.53,0,0,1,3.79-2.19l47.37,27.35a2.52,2.52,0,0,1,1.26,2.19V383a2.45,2.45,0,0,0-1.22-2.1L482.6,353.51a1.08,1.08,0,0,0-1.63.93v40.22a2.4,2.4,0,0,0,1.22,2.09L527.84,423A2.44,2.44,0,0,0,531.49,420.85Z"/><path class="cls-20" d="M531.49,383v37.89a2.44,2.44,0,0,1-3.65,2.1l-45.65-26.2a2.4,2.4,0,0,1-1.22-2.09V354.44a1.08,1.08,0,0,1,1.63-.93l47.67,27.35A2.45,2.45,0,0,1,531.49,383Z"/><path class="cls-21" d="M464.86,390.32a9.07,9.07,0,0,1,1.1,5.16v67.16l-37.32-21.83V372.07a2.56,2.56,0,0,1,3.82-2.26l28.46,16.76a9.21,9.21,0,0,1,3.9,3.66,0,0,0,0,0,0,0S464.86,390.3,464.86,390.32Z"/><path class="cls-22" d="M466,462.64v1.92l-39.31-22.7v-71a2.68,2.68,0,0,1,4-2.33l30,17.3a10.68,10.68,0,0,1,4.18,4.41,9.21,9.21,0,0,0-3.9-3.66l-28.46-16.76a2.56,2.56,0,0,0-3.82,2.26v68.74Z"/><path class="cls-23" d="M460.23,465.25a2.71,2.71,0,0,1-.32,2.19,1.92,1.92,0,0,1-.52.46l-22.15,12.79a3,3,0,0,1-3,0l-35.09-20.27a1.71,1.71,0,0,1-.57-.5,2.68,2.68,0,0,1-.33-2.08,1.36,1.36,0,0,0,.09.48,1.54,1.54,0,0,0,.26.53,1.86,1.86,0,0,0,.55.49l35.09,20.26a3,3,0,0,0,3,0l22.15-12.79h0a1.8,1.8,0,0,0,.25-.18,1.13,1.13,0,0,0,.19-.19,0,0,0,0,0,0,0,.47.47,0,0,0,.09-.12,1.6,1.6,0,0,0,.2-.39A1.57,1.57,0,0,0,460.23,465.25Z"/><path d="M460.23,465.25a1.57,1.57,0,0,1-.08.64,1.6,1.6,0,0,1-.2.39,2.38,2.38,0,0,0,.14-1.62A5.09,5.09,0,0,1,460.23,465.25Z"/><path d="M460.23,465.25a5.09,5.09,0,0,0-.14-.59A1.38,1.38,0,0,1,460.23,465.25Z"/><path class="cls-24" d="M460.09,464.66a2.38,2.38,0,0,1-.14,1.62.47.47,0,0,1-.09.12,1.42,1.42,0,0,1-.2.22l-.25.18h0L437.24,479.6a3,3,0,0,1-3,0l-35.09-20.26a1.86,1.86,0,0,1-.55-.49,2.32,2.32,0,0,1-.1-2,1.67,1.67,0,0,1,.65-.64l22-12.69a3,3,0,0,1,3,0l35.25,20.35A1.62,1.62,0,0,1,460.09,464.66Z"/><path d="M459.86,466.4a0,0,0,0,1,0,0,1.13,1.13,0,0,1-.19.19A1.42,1.42,0,0,0,459.86,466.4Z"/><path d="M459.41,466.8l.25-.18A1.8,1.8,0,0,1,459.41,466.8Z"/><path d="M398.57,458.85a1.54,1.54,0,0,1-.26-.53,1.36,1.36,0,0,1-.09-.48,8.44,8.44,0,0,1,.25-1A2.32,2.32,0,0,0,398.57,458.85Z"/><path d="M398.47,456.85a8.44,8.44,0,0,0-.25,1A1.74,1.74,0,0,1,398.47,456.85Z"/><line class="cls-25" x1="608.99" y1="595.79" x2="477.94" y2="671.22"/><line class="cls-25" x1="596.94" y1="588.35" x2="621.29" y2="602.09"/><line class="cls-25" x1="465.37" y1="664.15" x2="489.72" y2="677.89"/><text class="cls-26" transform="matrix(0.82, -0.4, 0.91, 0.42, 515.71, 640.59)">1KM</text><path class="cls-27" d="M916.76,383.42V534.75L746.39,633.12V481.79ZM877.44,508.06V440a2.06,2.06,0,0,0-3.09-1.79l-.62.36-84.57,48.83a6.9,6.9,0,0,0-3.46,6v68.12a2.05,2.05,0,0,0,3.09,1.77L874,514.05A6.92,6.92,0,0,0,877.44,508.06Z"/><path class="cls-28" d="M841.18,238l75.58,145.46L746.39,481.79,670.28,335.33a5.24,5.24,0,0,0-6-2.66l-.06-.18L832.39,235.4A6.33,6.33,0,0,1,841.18,238Z"/><path class="cls-4" d="M877.44,440v68.1a6.92,6.92,0,0,1-3.45,6l-85.2,49.18a2.05,2.05,0,0,1-3.09-1.77v-4.3a2,2,0,0,0,3,1.73l82.25-47.49a6.66,6.66,0,0,0,3.33-5.77V439.88a1.93,1.93,0,0,0-.53-1.35l.62-.36A2.06,2.06,0,0,1,877.44,440Z"/><path class="cls-29" d="M874.26,439.88v65.75a6.66,6.66,0,0,1-3.33,5.77l-82.25,47.49a2,2,0,0,1-3-1.73V493.34a6.9,6.9,0,0,1,3.46-6l84.57-48.83A1.93,1.93,0,0,1,874.26,439.88Z"/><path class="cls-30" d="M746.39,481.79V633.12l-78.64-45.4V518.64a9.07,9.07,0,0,0-1.1-5.16s0,0,0-.06l0,0a10.6,10.6,0,0,0-4.17-4.41l-30-17.3a2.68,2.68,0,0,0-4,2.33v71L576,534.75V383.42Zm-13.11,63.72V506a2.51,2.51,0,0,0-1.27-2.19l-47.36-27.35a2.52,2.52,0,0,0-3.79,2.18v39.57a2.52,2.52,0,0,0,1.26,2.19l47.37,27.34A2.52,2.52,0,0,0,733.28,545.51Z"/><path class="cls-31" d="M670.28,335.33l76.11,146.46L576,383.42l87-50.22a4.89,4.89,0,0,1,1.28-.53A5.24,5.24,0,0,1,670.28,335.33Z"/><path class="cls-32" d="M733.28,544v1.5a2.52,2.52,0,0,1-3.79,2.18l-47.37-27.34a2.52,2.52,0,0,1-1.26-2.19V478.59a2.52,2.52,0,0,1,3.79-2.18L732,503.76a2.51,2.51,0,0,1,1.27,2.19v.17a2.45,2.45,0,0,0-1.22-2.1l-47.68-27.35a1.08,1.08,0,0,0-1.62.93v40.22a2.4,2.4,0,0,0,1.22,2.09l45.65,26.19A2.43,2.43,0,0,0,733.28,544Z"/><path class="cls-33" d="M733.28,506.12V544a2.43,2.43,0,0,1-3.65,2.09L684,519.91a2.4,2.4,0,0,1-1.22-2.09V477.6a1.08,1.08,0,0,1,1.62-.93L732.06,504A2.45,2.45,0,0,1,733.28,506.12Z"/><path class="cls-34" d="M666.65,513.48a9.07,9.07,0,0,1,1.1,5.16V585.8L630.43,564V495.23a2.55,2.55,0,0,1,3.82-2.26l28.46,16.76a9.15,9.15,0,0,1,3.89,3.66l0,0S666.65,513.46,666.65,513.48Z"/><path class="cls-35" d="M667.75,585.8v1.92L628.44,565V494a2.68,2.68,0,0,1,4-2.33l30,17.3a10.6,10.6,0,0,1,4.17,4.41,9.15,9.15,0,0,0-3.89-3.66L634.25,493a2.55,2.55,0,0,0-3.82,2.26V564Z"/><path class="cls-36" d="M662,588.41a2.68,2.68,0,0,1-.32,2.18,1.84,1.84,0,0,1-.52.47L639,603.85a3,3,0,0,1-3,0l-35.09-20.27a1.71,1.71,0,0,1-.57-.5A2.68,2.68,0,0,1,600,581a1.61,1.61,0,0,0,.08.48,1.77,1.77,0,0,0,.27.53,1.86,1.86,0,0,0,.55.49L636,602.76a3,3,0,0,0,3,0L661.18,590h0a2.71,2.71,0,0,0,.25-.18,1.13,1.13,0,0,0,.19-.19,0,0,0,0,0,0,0,.47.47,0,0,0,.09-.12,1.61,1.61,0,0,0,.28-1Z"/><path d="M662,588.41a1.61,1.61,0,0,1-.28,1,2.38,2.38,0,0,0,.14-1.62A4.65,4.65,0,0,1,662,588.41Z"/><path d="M662,588.41a4.65,4.65,0,0,0-.14-.59A1.35,1.35,0,0,1,662,588.41Z"/><path class="cls-37" d="M661.88,587.82a2.38,2.38,0,0,1-.14,1.62.47.47,0,0,1-.09.12,1.42,1.42,0,0,1-.2.22l-.25.18h0L639,602.76a3,3,0,0,1-3,0L600.91,582.5a1.86,1.86,0,0,1-.55-.49,2.32,2.32,0,0,1-.1-2,1.6,1.6,0,0,1,.65-.64l22-12.69a3,3,0,0,1,3,0L661.18,587A1.62,1.62,0,0,1,661.88,587.82Z"/><path d="M661.65,589.56a0,0,0,0,1,0,0,1.13,1.13,0,0,1-.19.19A1.42,1.42,0,0,0,661.65,589.56Z"/><path d="M661.2,590l.25-.18A2.71,2.71,0,0,1,661.2,590Z"/><path d="M600.36,582a1.77,1.77,0,0,1-.27-.53A1.61,1.61,0,0,1,600,581a8,8,0,0,1,.25-1A2.32,2.32,0,0,0,600.36,582Z"/><path d="M600.26,580a8,8,0,0,0-.25,1A1.67,1.67,0,0,1,600.26,580Z"/><path class="cls-38" d="M.09,469.14c5.51,146.52,266,261.65,474.72,263q8.4,0,16.87-.14L1.53,444.6A129.25,129.25,0,0,0,.09,469.14Z"/><path class="cls-39" d="M.09,469.14c5.51,146.52,266,261.65,474.72,263q8.4,0,16.87-.14L1.53,444.6A129.25,129.25,0,0,0,.09,469.14Z"/><path class="cls-38" d="M1.53,444.6,491.68,732c17.06-.38,34.32-1.48,51.65-3.27L8,418.77A145.25,145.25,0,0,0,1.53,444.6Z"/><path class="cls-40" d="M1.53,444.6,491.68,732c17.06-.38,34.32-1.48,51.65-3.27L8,418.77A145.25,145.25,0,0,0,1.53,444.6Z"/></g><g id="Layer_3" data-name="Layer 3"><path class="cls-41" d="M322.34,562.66c-.76.77-.55,1.1-1.55,3.13-1.82,3.7-3.25,4.14-3.27,6,0,1.45.83,3.3,2.18,3.77,2.71.95,7.36-4.1,9-9.13.48-1.47,1.2-3.63.16-4.78C327.57,560.25,324.1,560.86,322.34,562.66Z"/><path class="cls-42" d="M329.56,570.93c-1.19,1.13-.63,1.71-2.32,4.64-1.49,2.58-2.39,2.95-2.43,4.37a4.16,4.16,0,0,0,2.17,3.77c2.34.86,6.3-2.82,10.12-8.86-.3,1-.6,2.31-.29,2.46s1.58-1,1.89-2.46a5,5,0,0,0-2.57-5.05C333.84,568.53,331,569.55,329.56,570.93Z"/><path class="cls-43" d="M331.3,506.1c.1,0,.22.55.44,6.82.28,8.18.5,14.92.29,25.67-.42,20.73-.65,31.08-2.18,34.81-.37.9-1.54,3.6-.58,4.49.75.7,2.59.13,3.77-.72a7.36,7.36,0,0,0,2.61-4.5c2.39-10.2,5.24-10.52,5.22-17.84a29.57,29.57,0,0,0-2.32-11.31c.25-2.23.83-7.57,1.6-14.5,1.58-14.25,2-17,.14-20.31-3.35-6.07-12-9.89-16-7.39-3.67,2.3-3,9.79-2.47,16.68.55,6.47,2,9.06,1.6,16-.22,3.66-.65,3.23-.92,7.42-.53,8.48,1.34,8.58.49,14.62a55.48,55.48,0,0,0-.73,10.45c.05,1.48.16,2.72.85,3,1.12.48,3.54-1.57,4.52-4,.55-1.39.26-1.95.64-5.79.19-1.9.38-2.89.52-3.93a77.45,77.45,0,0,0,.29-12.61C328.5,531.47,330.64,506.09,331.3,506.1Z"/><path class="cls-44" d="M321.18,417.64a10,10,0,0,0-1.16,3.48c-2.58,13.67,3.25,20.44.39,30.94-1.64,6-4.39,6.95-3.48,9.48,2,5.6,17.14,5.34,30.55,4.06.31-3.31.84-8.52,1.74-14.89,2.39-16.95,4.59-22.62,1.16-29.39a18,18,0,0,0-7.73-7.93C335.21,409.67,324.61,411.81,321.18,417.64Z"/><path class="cls-45" d="M209,231.4v85.54a2.87,2.87,0,0,0,1.43,2.49l101.12,58.9a2.88,2.88,0,0,0,4.33-2.49l-.25-85.79a2.88,2.88,0,0,0-1.43-2.48L213.31,228.91A2.88,2.88,0,0,0,209,231.4Z"/><path class="cls-46" d="M251.38,518.05a42.07,42.07,0,0,0-4.75,4.78A41.58,41.58,0,0,0,242,529.6a8.48,8.48,0,0,0,2.13,3.48,5.28,5.28,0,0,0,2.9,1.74c1.54.22,2.79-.64,4.06-1.55a18.79,18.79,0,0,0,4.83-5.41,32.15,32.15,0,0,0,3-5.76,6,6,0,0,0-.73-2.72l-.07-.08c-.17-.15-.54-.14-1.88-.32A42.8,42.8,0,0,1,251.38,518.05Z"/><path class="cls-47" d="M236.66,508.77a41.25,41.25,0,0,0-9.39,11.55,8.54,8.54,0,0,0,2.12,3.48,5.35,5.35,0,0,0,2.91,1.74c1.54.22,2.78-.64,4.06-1.55a19.1,19.1,0,0,0,4.83-5.41,33.26,33.26,0,0,0,3-5.76,6,6,0,0,0-.72-2.72l-.07-.08c-.18-.15-.55-.14-1.89-.32A43,43,0,0,1,236.66,508.77Z"/><path class="cls-48" d="M254.14,511.23c-.61,2.88-1.21,5.75-1.82,8.63a3.06,3.06,0,0,0-2.17,3,2.49,2.49,0,0,0,1.74,1.89c1.64.47,3.94-1.09,5.51-4.06l1.88-9Z"/><path class="cls-49" d="M239.35,500.28q-.91,4.31-1.82,8.62a3.09,3.09,0,0,0-2.18,3.05,2.53,2.53,0,0,0,1.74,1.88c1.65.48,3.95-1.09,5.52-4.06l1.88-9Z"/><path class="cls-50" d="M231,334.39a13.58,13.58,0,0,0,2.2-.29,5.5,5.5,0,0,0,1.47-.43c1.23-.65,2.26-2.39,1.69-3.35a1.66,1.66,0,0,0-2-.57c-.42.24-.38.69-.87,1.55a6,6,0,0,1-1,1.3,11.6,11.6,0,0,0-6.73-4.41,7.38,7.38,0,0,0-1.13,1,5.49,5.49,0,0,0-1.5,2.58,4.48,4.48,0,0,0,1.11,3.46c-3.41,8.94-6.1,16-8,20.88-1.24,3.14-2.09,6.42-3.29,9.58a14.36,14.36,0,0,0-1.26,4.83,13.47,13.47,0,0,0,1.45,6.38c1.9,4.22,4.08,8.85,6.58,13.83q12.28,19.73,16.24,18.17,1.95-.75,1.87-6.65a178.42,178.42,0,0,0-7.38-17c-1.19-2.38-2.3-4.47-2.71-5.22-2.32-4.33-4.44-7.89-6.09-10.54q2.88-9.89,5.61-20.21Q229.17,341.75,231,334.39Z"/><path class="cls-51" d="M291.47,372.29a9.13,9.13,0,0,1-2.81-4.35,6.67,6.67,0,0,1,0-4.06c.17-.49.66-1.87,1.55-1.94a1.19,1.19,0,0,1,1.06.59c.34.61-.24,1.22-.38,2.51a5.2,5.2,0,0,0,.09,1.64,11.64,11.64,0,0,1,6.77,4.35,6.81,6.81,0,0,1-.48,1.45,7.51,7.51,0,0,1-1.74,2.42q-1,2.49-2,5c-2.5,6-5.13,11.67-7.83,17a5.59,5.59,0,0,1-.62,3.3,5.86,5.86,0,0,1-3.83,2.79,55.61,55.61,0,0,1-6.09,4.25,57.6,57.6,0,0,1-8.36,4.1,60.42,60.42,0,0,1-8,2.52L256,407.75c4-2.5,7.36-4.42,9.81-5.78,1.69-.94,2.37-1.28,3.67-2a86.81,86.81,0,0,0,9.09-6,48.08,48.08,0,0,1,3.29-8.51A49.26,49.26,0,0,1,291.47,372.29Z"/><path class="cls-52" d="M251.75,469.82l2.36,1.15c-.37,7.75-.42,14-.39,18.45,0,4.74.16,7.26,0,11.46a115,115,0,0,1-1.58,14.65,4.07,4.07,0,0,0,4.35,2.47,4,4,0,0,0,3-2.76A81.16,81.16,0,0,0,263.43,491c0-5.73-.72-8.45,0-15.23.44-4.14,1.1-6.89.54-11.05a27.07,27.07,0,0,0-3-9.24l-16.41-5.88c-1.63,8.38-2.53,15.24-3,19.91-1.06,9.59-1.05,14.77-2.52,25.06-.81,5.63-1.69,10.18-2.29,13.07.74.39,5.09,2.63,7.17.91.4-.34.73-.83,1.51-3.61a37.7,37.7,0,0,0,1.24-5.24c.49-3.36,2.44-13.68,5.23-28.13C251.8,471,251.78,470.41,251.75,469.82Z"/><path class="cls-53" d="M240.61,455.54c.27-5.28,0-10.58.19-15.86.28-6.27.65-14.53-2.7-22.62a35.25,35.25,0,0,0-8.23-11.86c3.88-8.69,5.46-10.78,6.1-10.58s.32,2.37,1.74,5.42a14.36,14.36,0,0,0,2.5,3.69,24.22,24.22,0,0,0,7.31,2.41,18.94,18.94,0,0,0,9.24-.39,17.33,17.33,0,0,0,7.05-4.36l3.1,12.38-5,1.74q.31,3.56.58,7.15c1,12.88,1.45,25.39,1.55,37.52-6.59,1.71-20.18,4.69-23-.2C240.4,459,240.49,457.93,240.61,455.54Z"/><path class="cls-54" d="M246.39,398.14c-.07,3.5-.15,7-.22,10.51a3.61,3.61,0,0,0,7.13-.06c.47-3.44.93-6.88,1.4-10.32Z"/><path class="cls-55" d="M237.32,372.58c-.52.85-1,2.06-.19,11.6.92,10.49,1.43,15.78,3.58,18.08,4.23,4.53,12.76,6,18.08,2.42,3.84-2.61,4.71-7,5.8-12.57,1.41-7.18,3-15-1.74-20.21C256.39,364.74,241.32,366.14,237.32,372.58Z"/><path class="cls-56" d="M238.05,363.11c-2.5,2.23-3,5.42-3.24,7.25A16.89,16.89,0,0,0,236.87,381c-.18-.55-1.23-3.86.6-6.53a7.57,7.57,0,0,1,4.49-2.76c5.88-1.8,11.28,1,12,1.4,1.41.77.63.62,5.22,3.87,3.31,2.34,3.91,2.55,4.55,3.72a12.89,12.89,0,0,1,1.45,5.8c0,.6-.09,1.5.18,1.58s1-1.26,1.17-1.53c2.23-4.4-1.14-12.47-1.35-12.95-1.17-2.74-2-4.74-4.06-6.82a18.83,18.83,0,0,0-10.3-5.08C247.22,360.93,241.73,359.82,238.05,363.11Z"/><path class="cls-57" d="M370,440.05a10.15,10.15,0,0,1-3.27-4.71,6.68,6.68,0,0,1-.08-4.34c.18-.52.71-2,1.72-2a1.45,1.45,0,0,1,1.22.64c.39.67-.26,1.3-.39,2.68a5.09,5.09,0,0,0,.14,1.76,14.38,14.38,0,0,1,4.1,1.63,13.75,13.75,0,0,1,3.68,3.16,7.42,7.42,0,0,1-.52,1.55,7.73,7.73,0,0,1-1.93,2.55c-.66,1.74-1.39,3.52-2.21,5.34a93.67,93.67,0,0,1-10.27,17.46,7.41,7.41,0,0,1-4.93,3.39,65.59,65.59,0,0,1-11.51,1.16c-3.26,0-6,0-7.83,0q.53-5.56,1.06-11.12c1.46,3.95,3.7,5,4.45,5.32,1.73.68,3.95.27,8.32-.58,1.72-.34,3.12-.68,4.06-.92a98.64,98.64,0,0,0,6.47-8.75A96.7,96.7,0,0,0,370,440.05Z"/><path class="cls-58" d="M369.46,435.66a6.71,6.71,0,0,0,3.19,2.81c1.38.73,2.65,1.41,3.92.91,1.75-.68,2.19-3,2.27-3.43a5.25,5.25,0,0,0,0-2c-.8-3.25-6.9-5.81-9.11-3.85C368.41,431.23,368.56,433.92,369.46,435.66Z"/><path class="cls-59" d="M288,490.36a11.54,11.54,0,0,0-4.41-4.22,7.26,7.26,0,0,0-4.45-.92c-.55.08-2.14.34-2.32,1.34a1.53,1.53,0,0,0,.5,1.36c.63.53,1.37,0,2.8.12a5.71,5.71,0,0,1,1.79.49A15,15,0,0,0,283,493a15.26,15.26,0,0,0,2.76,4.34,8.33,8.33,0,0,0,1.65-.23,7.52,7.52,0,0,0,2.88-1.46c1.87-.33,3.8-.73,5.77-1.2a92,92,0,0,0,19.29-7,7.34,7.34,0,0,0,2.57-1.72,7.49,7.49,0,0,0,1.56-2.61c1.2-3.23.45-5.33.95-9.68a31.3,31.3,0,0,1,.73-3.92c.34-3.52.67-7.05,1-10.58-3.76,3.63-5.11,6.91-5.63,9.31-.44,2.07-.38,4.46-1.69,8.29-.58,1.68-1.11,3-1.48,3.93A95.61,95.61,0,0,1,288,490.36Z"/><path class="cls-60" d="M283.54,488.94a7.53,7.53,0,0,1,2.46,3.77c.57,1.53,1.1,2.94.42,4.13-.93,1.64-3.41,1.63-3.82,1.63a5.42,5.42,0,0,1-2.08-.39c-3.24-1.43-5.06-8.09-2.76-9.95C279.13,487,281.88,487.7,283.54,488.94Z"/><path class="cls-61" d="M337.94,470.28a48.91,48.91,0,0,0,1.1,9c.91,5.24,2,9.07,2.12,9.67,1.28,4.73,2.51,14.36,2.61,35.39l-25.23-2.61c5.15-27.31,5.33-38.67,4.19-43.63a46.53,46.53,0,0,1-.54-19.23,9.17,9.17,0,0,1,1.57-1.44c4.68-3.33,13.07-2.23,15.24,1.69C340.41,461.7,338,463.18,337.94,470.28Z"/><path class="cls-62" d="M326.2,451.25c0,3-.09,6.06-.13,9.08a3.09,3.09,0,0,0,3.17,2.62,3,3,0,0,0,2.59-2.63l1.08-8.91Z"/><path class="cls-63" d="M317.38,426.74c-.45.69-.89,1.68-.16,9.47.79,8.55,1.23,12.87,3.09,14.75,3.65,3.69,11,4.92,15.61,2,3.32-2.13,4.07-5.72,5-10.25,1.22-5.86,2.55-12.25-1.5-16.49C333.85,420.34,320.84,421.49,317.38,426.74Z"/><path class="cls-64" d="M325.11,419.38c-3,1.61-4.68,2.52-6.18,4.44-2.17,2.79-2.82,6.23-2.09,6.78s2-.87,4.79-1.55c.73-.19,3-.68,7.74.58,8.28,2.21,12.29,6.72,13.53,5.6.69-.61-.48-2-1.16-5.8-1.05-5.89.87-7.74-.77-10.25-2.22-3.39-8.28-2.7-9-2.63C329.91,416.79,328.31,417.66,325.11,419.38Z"/><path class="cls-65" d="M198.24,439.48l2,6.11a6.3,6.3,0,0,0-6.7,4.06,17.2,17.2,0,0,1-1.35-10.38,94.88,94.88,0,0,1,2.09-26.13,48,48,0,0,1-5.45-8.54c-1.72-3.49-1.55-4.32-3.28-6.77s-3-3.24-3.08-5.11c-.05-1.71,1-3.71,2.51-4.19,2-.63,4.07,1.41,6.13,3.44,1.5,1.48,4.5,4.76,8,12.43,2,4.5,3.33,6.29,3.21,9a27,27,0,0,1-.9,4.36c-.67,2.93-1,5-1.6,8.7C199.26,429.59,198.66,434,198.24,439.48Z"/><path class="cls-66" d="M172.31,485.36A36.85,36.85,0,0,0,164,495.63a7.53,7.53,0,0,0,1.89,3.1,4.78,4.78,0,0,0,2.58,1.55c1.37.19,2.48-.57,3.61-1.38a16.64,16.64,0,0,0,4.3-4.82A28.65,28.65,0,0,0,179,489a5.36,5.36,0,0,0-.65-2.43l-.06-.07c-.15-.13-.48-.12-1.67-.28A38.15,38.15,0,0,1,172.31,485.36Z"/><path class="cls-67" d="M159.22,477.11a36.1,36.1,0,0,0-4.23,4.25,37.25,37.25,0,0,0-4.13,6,7.67,7.67,0,0,0,1.9,3.09,4.65,4.65,0,0,0,2.58,1.55c1.37.2,2.48-.57,3.61-1.37a17.12,17.12,0,0,0,4.3-4.82,28.87,28.87,0,0,0,2.63-5.12,5.16,5.16,0,0,0-.64-2.42l-.06-.07c-.16-.14-.49-.13-1.68-.29A38.32,38.32,0,0,1,159.22,477.11Z"/><path class="cls-68" d="M174.76,479.3q-.8,3.82-1.61,7.67a2.74,2.74,0,0,0-1.94,2.71,2.24,2.24,0,0,0,1.55,1.67c1.46.43,3.51-1,4.9-3.61l1.68-8Z"/><path class="cls-69" d="M161.61,469.55,160,477.22a2.74,2.74,0,0,0-1.93,2.71,2.23,2.23,0,0,0,1.55,1.68c1.46.42,3.5-1,4.9-3.61l1.67-8Z"/><path class="cls-70" d="M153.69,323.91a5,5,0,0,0,3.58-2c.14-.22,1.25-1.85.58-3.34-.27-.58-1-1.5-1.8-1.37a1.72,1.72,0,0,0-1.25,1.52,2.08,2.08,0,0,0,.65,1.69A10.16,10.16,0,0,0,153,318a10.36,10.36,0,0,0-3.51-1.55c-.47-1.62-.88-2-1.21-2-.87,0-2.09,2.84-1.57,5.44a6.47,6.47,0,0,0,1.43,2.89c-3,8-5.42,14.23-7.13,18.58-1.1,2.79-1.86,5.71-2.93,8.51a12.83,12.83,0,0,0-1.12,4.3,11.9,11.9,0,0,0,1.29,5.68c1.69,3.75,3.63,7.87,5.85,12.29q10.94,17.55,14.45,16.17,1.72-.68,1.66-5.91a161.36,161.36,0,0,0-6.56-15.16c-1.06-2.12-2.05-4-2.41-4.64-2.07-3.84-4-7-5.42-9.37q2.55-8.79,5-18C151.79,331.44,152.76,327.65,153.69,323.91Z"/><path class="cls-71" d="M172.64,442.46l2.1,1c-.33,6.89-.37,12.5-.34,16.41,0,4.21.14,6.46,0,10.19a101.36,101.36,0,0,1-1.41,13,3.59,3.59,0,0,0,3.87,2.19,3.54,3.54,0,0,0,2.7-2.45A72,72,0,0,0,183,461.32c0-5.09-.64-7.52,0-13.54.39-3.69,1-6.13.48-9.83a24,24,0,0,0-2.69-8.22l-14.59-5.23c-1.46,7.45-2.26,13.55-2.72,17.7-.94,8.54-.93,13.14-2.24,22.3-.72,5-1.5,9.05-2,11.62.66.35,4.52,2.34,6.37.81.36-.3.66-.74,1.35-3.21a35,35,0,0,0,1.1-4.66c.44-3,2.17-12.17,4.65-25C172.69,443.51,172.66,443,172.64,442.46Z"/><path class="cls-72" d="M167.88,378.71l-.21,9.34a3.22,3.22,0,0,0,6.35,0q.61-4.59,1.25-9.18Z"/><path class="cls-73" d="M158.43,357.88c-.37.71-.41,1.34,1.21,8.42,2.25,9.88,2.92,11.24,3.57,12.32,1,1.65,4.53,7.58,8.56,7.25,5-.4,7.63-10.38,8.7-14.5,1.45-5.6,2.45-9.42.44-12.62C176.55,351.83,161.1,352.66,158.43,357.88Z"/><path class="cls-74" d="M166.4,350.78c-1.59.38-5.43,1.32-7.25,4.64a9.26,9.26,0,0,0-1,4.2,13,13,0,0,0,1.5,6.68,26.48,26.48,0,0,1-.49-3.63c-.19-2.84-.28-4.27.29-5.22,1.29-2.15,5-1.94,11.31-1.6,3.56.2,5.06.67,6.39,1.6a9.43,9.43,0,0,1,2.9,3.48c2.49,5,.09,10.35.43,10.44s5.74-8.33,2-14.65a12.35,12.35,0,0,0-5.65-4.64A15.58,15.58,0,0,0,166.4,350.78Z"/><path class="cls-75" d="M146.58,318.14c.38,1.27,1.87,1.73,4.87,2.67,2.3.72,2.9.48,3.21.31,1.32-.72,1.42-2.64,1.44-3a4.06,4.06,0,0,0-.21-1.61c-.89-2.27-5.14-3.89-7.64-2.1C147.15,315.23,146.19,316.82,146.58,318.14Z"/><path class="cls-76" d="M162.73,429.76c.24-4.69,0-9.41.17-14.1.36-8,.63-14.26-2.4-20.12a23.53,23.53,0,0,0-7.78-8.55c3.76-9.56,5.25-11.58,5.88-11.41s.28,2.08,1.55,4.82a12.67,12.67,0,0,0,2.23,3.28,21.67,21.67,0,0,0,6.5,2.15L170,386c3.12.34,4.84-.27,7.15-.49a18.09,18.09,0,0,1,6.27.44,15.08,15.08,0,0,1,5.61,2.9l-5.09,9.95-2.24-4.61q.28,3.16.52,6.36,1.28,17.18,1.37,33.37c-5.85,1.52-17.94,4.17-20.46-.17C162.54,432.8,162.63,431.89,162.73,429.76Z"/><polygon class="cls-45" points="192.83 439.55 284.4 492.1 284.4 536.8 192.41 483.13 192.83 439.55"/><path class="cls-77" d="M134.81,474.77c-.66.53-.73,1.4-.81,2.44s-.18,2.37.7,3.25a2.69,2.69,0,0,0,2.67.7c1.29-.45,1.61-2,1.74-2.56a3.6,3.6,0,0,0-.64-3.31A2.93,2.93,0,0,0,134.81,474.77Z"/><path class="cls-78" d="M137.54,454.79c-1,1.09-.29,2.48-.52,8.59,0,.64,0,1-.08,1.57a59.88,59.88,0,0,1-1,7.09c-.14.71-.19,1.43-.29,2.15-.17,1.17-.25,1.53,0,1.86a1.41,1.41,0,0,0,1.8.29c.36-.29.34-.83.35-1.22a35.17,35.17,0,0,1,1.39-5.75c.35-1.27.4-1.22.64-2.21.39-1.54.42-2.24.64-3.43.49-2.73,1-3.12,1.57-6.15.4-2.26.22-2.7,0-3C141.19,453.61,138.69,453.59,137.54,454.79Z"/><path class="cls-77" d="M127.19,469.14c-.82-.06-1.53.51-2.9,1.62s-2,1.63-2,2.27a2.7,2.7,0,0,0,2.21,2.32c2,.41,3.48-1.73,3.83-2.21s1.26-1.74.82-2.76A2.3,2.3,0,0,0,127.19,469.14Z"/><path class="cls-79" d="M129,449.68a19.21,19.21,0,0,0-2.5,9.58c.06,3.16,1,5,.11,8.45-.57,2.18-1.49,3.51-.93,4s2.62-.2,3.23-1.5a2.61,2.61,0,0,0,.18-1.16c0-2.41.72-2.87.92-5.41a16,16,0,0,0-.07-3c.23-.68.61-1.74,1.15-3,1.47-3.52,2.36-4.49,2-5.61C132.86,451.35,132.14,450.28,129,449.68Z"/><path class="cls-80" d="M129.54,441.39q-1.48,5.7-3,11.4a8.12,8.12,0,0,0,6.79,4c.43-1.26.85-2.53,1.27-3.8.21,1.32.41,2.63.62,4a11.36,11.36,0,0,0,7.7,2.12,10.42,10.42,0,0,0,2.2-.54q-.69-7.2-1.4-14.38Z"/><path class="cls-81" d="M127.69,421a40.15,40.15,0,0,0-3.25,4.18,39.6,39.6,0,0,0-2.25,3.71,71.91,71.91,0,0,0-2.32-8A71.15,71.15,0,0,0,114,408.32a4.39,4.39,0,0,0-.85-2.48,4.65,4.65,0,0,0-5.81-1.23c-1.16.68-2.3,2.19-1.93,3.4.42,1.39,2.84,2.41,5.82,1.57.35,1.45,4.4,17.73,7.57,22,.52.69,1.71,2.28,3.35,2.31a3.58,3.58,0,0,0,2.23-.92c2.82-2.1,2.52-4.4,5.19-10.15.24-.51.7-1.48.31-1.93S128,420.84,127.69,421Z"/><path class="cls-82" d="M133.63,408.17l-.21,9.6a3.3,3.3,0,0,0,6.52,0q.63-4.73,1.28-9.43Z"/><path class="cls-83" d="M129,389.19a8.85,8.85,0,0,0-1.75,2.14,14.58,14.58,0,0,0-1.92,9.53,8.29,8.29,0,0,0-.51,3.36,8.78,8.78,0,0,0,2.24,5.2,10.9,10.9,0,0,0,8.75,3.86c6.62-.52,11.83-9,10.9-16.12-.18-1.33-1-5.78-4.87-8.36S132.26,386.4,129,389.19Z"/><path class="cls-84" d="M125,387a2.28,2.28,0,0,0-3.51-.24c-1,1.15-.61,3.1,0,4.18a3.11,3.11,0,0,0,2.62,1.64,3.79,3.79,0,0,0-.08,2c.27,1,1.14,2.32,2.1,2.08a2.17,2.17,0,0,0,1.27-1.72,2.61,2.61,0,0,0,.82.72c.36.21,1,.55,1.42.19a1.79,1.79,0,0,0,.45-1.37,3.22,3.22,0,0,0,1.42,1.55c.68.33,1.78.46,2.17-.18s-.24-2.32-.15-2.36.25.95.9,1.54c.41.37,1.27.83,1.87.27a2.12,2.12,0,0,0,.3-2.27,1.83,1.83,0,0,0,1,.64,1.58,1.58,0,0,0,1.8-1,2,2,0,0,0,0-1.09l.82,1a1.4,1.4,0,0,0,2.32-.09,2.1,2.1,0,0,0-.52-2.18l1.5,3c.57,1,1.15,2.06,1.73,3.09-.3,3.08.42,5.29,1.41,5.57a1.8,1.8,0,0,0,1.87-1.27c.46-1.28-.71-2.38-1-5.21a10.84,10.84,0,0,1,0-2.15c-.09-.45-.24-1.13-.45-1.93-.66-2.52-1-3.78-1.87-4.7a4,4,0,0,0-2.55-1.27c-.62,0-.68.19-1.12.09-1.27-.28-1.43-2.15-2.39-2.45-.47-.14-1.23,0-2.47,1.73a2.33,2.33,0,0,0-1.65-.85,2.42,2.42,0,0,0-1.9,1,1.46,1.46,0,0,0-2.15-.3,2.17,2.17,0,0,0-.54,1.55c-.58-1.1-1.67-1.38-2.34-.85a2.21,2.21,0,0,0-.63,1.89c.2-1.1-.41-2.06-1.05-2.14S125,385.83,125,387Z"/><path class="cls-85" d="M145.43,444.05c.23,1.55.4,2.05.1,2.53-1,1.57-5.79,1.08-17.81-3.69L130.93,422l-1.55,2.92a6.56,6.56,0,0,1-3.74-3.32A10.81,10.81,0,0,1,128,418c3.82-3.87,10-3.89,14.09-2.55a16.37,16.37,0,0,1,5.66,3.37A16.83,16.83,0,0,1,152,425a3.63,3.63,0,0,1-2.05,1.38,3.68,3.68,0,0,1-2.31-.22c-.84-1.32-1.34-1.55-1.65-1.48-.89.21-.88,3.49-.82,10C145.24,440.23,145.27,443,145.43,444.05Z"/><path class="cls-86" d="M148.81,427.08a10.31,10.31,0,0,1,1.34,4.59c-6.7,6.34-8.67,8.5-8.48,8.71s1-.56,1.51-.23c.79.47,0,2.4.7,2.79s1.9-.4,2.43-1.51a3.17,3.17,0,0,0-.23-2.85c1.11-.68,3.33-2.09,5.58-3.77a4.15,4.15,0,0,0,1.71-2.16,3.81,3.81,0,0,0,0-1.73,6.16,6.16,0,0,0-.65-1.56,12.24,12.24,0,0,1-.92-2.16c-.34-1.14-.42-1.89-1.07-2.22a1.87,1.87,0,0,0-2.35.71C148.23,426.18,148.58,426.7,148.81,427.08Z"/><path d="M107.28,413.68a1.25,1.25,0,0,0,2.49,0V383.05h-2.49Z"/><polygon class="cls-45" points="89.26 356.7 89.26 388.53 119.42 405.67 120.37 374.66 89.26 356.7"/><path class="cls-87" d="M357.25,575.31c-1.49,2.19-3.09,3.59-3.64,3.19s.11-2.39,1.49-4.6l67.59-103.72,2.16,1.41Z"/><path class="cls-88" d="M389.14,524.38a87.64,87.64,0,0,1,13.5,21.71c5.55,12.85,3.42,16.77,9.37,24.2,5.6,7,10.09,6.75,18.34,16a66.86,66.86,0,0,1,8.59,12.09l57.75-51.51a81.73,81.73,0,0,0-17.17-15.22c-8.2-5.41-11.55-5.44-17.17-10.14-8.32-7-9.11-13.66-14.42-22.69-4.19-7.11-11.77-16.64-26.56-25.31Z"/><ellipse class="cls-89" cx="355.11" cy="580.32" rx="12" ry="4.64"/><path d="M358.76,568.29c-.9,1.19-.89,2.44-.46,2.76s1.58,0,2.47-1.13l.26,2.42-3.51,5.7-1.89,2.65c-1.52,1.41-3.6,1.33-4.55.28a3.17,3.17,0,0,1-.42-2.78q3-4.59,6-9.17Z"/></g><g id="Layer_5" data-name="Layer 5"><path class="cls-90" d="M36,359.08a195.42,195.42,0,0,1-4.88-24.5"/><path class="cls-91" d="M30.32,285c2.36-23.67,9-51.24,23.41-81,8.69-17.9,33.94-68.05,92.49-98.34,15.54-8,58.25-29.38,113.56-21.08C335.64,96,376.5,154.29,385.18,166.68c27,38.49,31.9,74.93,37.18,100.87,21.13,103.75,96.45,277.39,207.37,301.71,74.69,16.37,173.79-33.33,187.32-39.81,12-5.75,21-10.86,38.9-21.07,40.44-23.05,68.74-39.18,99.25-65.56,44.42-38.41,60.38-69.9,66.73-84.3,11.18-25.34,10.8-39.06,8.19-49.17-4.53-17.55-18.62-35.19-37.46-42.14-29.09-10.74-67.6,4.68-99.44,18.49"/><path class="cls-90" d="M869.78,293.74c-.78.14-1.57.27-2.39.39a77.37,77.37,0,0,1-22.5,0"/><circle class="cls-92" cx="122.91" cy="117.47" r="33.17"/><ellipse class="cls-45" cx="120.07" cy="117.55" rx="17.25" ry="14.55"/><path class="cls-45" d="M123.85,127.56c.2,1-2.19,2.35-6.9,4.91-2.75,1.5-5.23,2.71-7.28,3.65a1.33,1.33,0,0,1-1.82-1.57,15.54,15.54,0,0,0,1.52-3.45,16,16,0,0,0,.7-4.24c.34-.32.66-.94,1.24-1C121.38,125.7,123.68,126.64,123.85,127.56Z"/><ellipse class="cls-93" cx="127.59" cy="112.15" rx="17.25" ry="14.55"/><path class="cls-93" d="M123.81,122.16c-.19,1,2.2,2.36,6.9,4.92,2.76,1.49,5.24,2.7,7.29,3.64a1.32,1.32,0,0,0,1.81-1.57,16,16,0,0,1-1.52-3.45,16.4,16.4,0,0,1-.7-4.24c-.33-.32-.65-.94-1.23-.95C126.28,120.3,124,121.24,123.81,122.16Z"/><circle class="cls-92" cx="426.65" cy="258.08" r="29.27"/><path class="cls-45" d="M426.63,271.85H414.44a3,3,0,0,1-3.09-3.07q0-9.18,0-18.35a3,3,0,0,1,3-3.06c1.48,0,3,0,4.45,0a1,1,0,0,0,.64-.28c.78-.81,1.53-1.66,2.31-2.48a.92.92,0,0,1,.6-.27c2.84,0,5.67,0,8.51,0a.91.91,0,0,1,.6.26c.78.82,1.52,1.67,2.31,2.49a1,1,0,0,0,.64.28c1.48,0,3,0,4.44,0a3,3,0,0,1,3.06,3v18.35a3,3,0,0,1-3.09,3.08Zm0-19.87a7.63,7.63,0,1,0,7.62,7.68A7.64,7.64,0,0,0,426.65,252Z"/><path class="cls-45" d="M426.66,254.71a4.9,4.9,0,1,1-4.91,4.84A4.83,4.83,0,0,1,426.66,254.71Z"/><circle class="cls-92" cx="515.71" cy="483.2" r="29.27"/><path class="cls-45" d="M529.75,479.56a13.1,13.1,0,0,1-2.5,6.93l-10.43,14.64c-.78,1.09-1.41,1.09-2.19,0l-10.5-14.7c-5.95-8.31-.45-20.71,9.71-21.88C522.39,463.57,529.75,470.06,529.75,479.56Zm-7.92-1a6.12,6.12,0,0,0-12.23-.13,6.14,6.14,0,0,0,6.06,6.23A6.08,6.08,0,0,0,521.83,478.55Z"/><circle class="cls-92" cx="826.09" cy="521.68" r="29.27"/><path class="cls-45" d="M816.05,518.49c3.81-2.14,7.57-4.24,11.31-6.38a1.23,1.23,0,0,0,.47-.93,4.75,4.75,0,0,1,4.55-4.94,4.89,4.89,0,0,1,5,4.45,4.71,4.71,0,0,1-4.43,5,4.25,4.25,0,0,1-3.26-1,.92.92,0,0,0-1.24-.11c-3.52,2-7.06,4-10.59,6a1.23,1.23,0,0,0-.2,2.11c3.73,2.22,7.47,4.42,11.24,6.64a4.82,4.82,0,0,1,5.65-1.24,4.67,4.67,0,0,1,2.59,5.65,4.76,4.76,0,0,1-5,3.39,4.57,4.57,0,0,1-4.2-4.44,1.43,1.43,0,0,0-.83-1.36c-3.41-2-6.81-4-10.21-6a1,1,0,0,0-1.31,0,4.73,4.73,0,0,1-6.53-.44,4.78,4.78,0,0,1,.09-6.48,4.72,4.72,0,0,1,6.54-.29Z"/><path class="cls-94" d="M841.18,237.79l75.58,145.46L746.39,481.61,670.28,335.15a5.26,5.26,0,0,0-6-2.66l-.06-.17,168.17-97.1A6.35,6.35,0,0,1,841.18,237.79Z"/></g></g></svg>