<svg width="78" height="26" xmlns="http://www.w3.org/2000/svg">
  <defs>
    <radialGradient cx="9.53927577%" cy="-.59843522%" fx="9.53927577%" fy="-.59843522%" r="282.072557%" gradientTransform="matrix(.31014 .35664 -.1184 .93424 .06509932 -.03441447)" id="a">
      <stop stop-color="#6C7BFD" offset="0%"/>
      <stop stop-color="#2938B7" offset="100%"/>
    </radialGradient>
  </defs>
  <path d="M15.8919.0295l-2.4038 3.1676c.1145.0362.2261.0815.3326.1365l2.6287 1.3318 2.0828-2.7446c.4271-.5703.4257-1.331.0498-1.8913H30.8353v12.4706h.1632l5.6286-7.097h7.5864l-7.2601 8.4838 7.668 11.9098H37.035l-4.0788-7.2601-2.1209 2.3657v4.8944h-8.0327l-.1773-7.7551c.6942-.7722 1.5101-1.8996 2.2121-3.4664.3605-.8033.4718-1.7306.4957-2.4374l-.1948.2623c-.3913.5228-.9892.8222-1.6407.8222-.4483 0-.875-.1435-1.2336-.415-.4381-.3315-.7211-.8151-.798-1.3607-.0041-.029-.007-.0577-.01-.0864-.4195.121-.8664.2733-1.3374.4665-.2992.1226-.5826.5701-.8449.9843-.207.3269-.4009.633-.579.7425l-.9411-1.7268s-1.2017-2.0194-1.6469-2.3382c-.9176-.6572-3.1228-1.5418-3.1228-1.5418l.2438-.5993 2.975 1.507c.2481.1279.5129.1885.7744.1885.6172 0 1.2127-.3393 1.5142-.9299.4281-.8399.0981-1.8701-.7377-2.3007l-4.55-2.2966c-.2505-.129-.5198-.1907-.7854-.1907-.6201 0-1.2186.3361-1.5032.9321l-.0433.0903c-.3151.6556-1.5632 3.2521-1.6723 4.3957-.0314.3285.0716.998.1899 1.3057.7071 1.8412 4.4527 6.6248 4.4527 6.6248l-.4124 3.4879h3.0898v5.6352H.3809v-5.6286h5.547V6.7899H1.0335V2.4664c1.4411-.2719 2.6783-.5982 3.7116-.9789.9822-.3877 1.9521-.8737 2.9097-1.458h8.2371zm3.2199 7.2813c-.0026-.2127-.037-.4262-.1038-.6343-.1743-.5451-.5496-.989-1.0565-1.2503l-1.0748-.5445 2.7332-3.6278c.5381-.7186 1.5542-.8627 2.2693-.3214.7146.5413.8578 1.5627.3195 2.2816l-3.0869 4.0967zm.8604 3.94c-.3393 0-.6813-.1065-.9731-.3275-.7151-.5416-.8581-1.5633-.3198-2.2819l3.3594-4.422c.3181-.4255.8039-.6494 1.2958-.6494.3393 0 .6813.1067.9734.3277.7149.5416.8576 1.563.3192 2.2816l-3.3593 4.4224c-.3184.4251-.8039.6491-1.2956.6491zm5.4266-4.2607c.3393 0 .6813.1067.9734.3278.7146.5413.8578 1.5627.3195 2.2818l-1.8991 2.5394c-.3184.4254-.8041.6494-1.2956.6494-.3393 0-.6813-.1068-.9734-.3278-.7148-.5413-.8578-1.563-.3197-2.2816l1.8991-2.5396c.3184-.4254.8042-.6494 1.2958-.6494zm21.7661-1.587h5.7102l.4894 2.488h.1632c.9789-.9517 1.9306-1.6858 2.8551-2.2025.9245-.5166 2.0122-.7749 3.263-.7749 1.3595 0 2.488.2719 3.3853.8157.9245.5438 1.6723 1.3596 2.2433 2.4472 1.0061-1.0332 1.985-1.8354 2.9367-2.4064.9789-.571 2.0937-.8565 3.3445-.8565 2.1754 0 3.7933.7341 4.8537 2.2025C77.4698 8.5845 78 10.6239 78 13.2343v12.5624h-7.0154V14.1316c0-1.2508-.1631-2.1074-.4894-2.5696-.2991-.4623-.8158-.6934-1.5499-.6934-.8702 0-1.8219.5166-2.8552 1.5499v13.3782h-7.0154V14.1316c0-1.2508-.1631-2.1074-.4894-2.5696-.2991-.4623-.8157-.6934-1.5499-.6934-.8701 0-1.8218.5166-2.8551 1.5499v13.3782h-7.0154V5.4031z" fill="url(#a)" fill-rule="evenodd"/>
</svg>
