<?xml version="1.0" standalone="no"?>
<!DOCTYPE svg PUBLIC "-//W3C//DTD SVG 20010904//EN"
 "http://www.w3.org/TR/2001/REC-SVG-20010904/DTD/svg10.dtd">
<svg version="1.0" xmlns="http://www.w3.org/2000/svg"
 width="512.000000pt" height="512.000000pt" viewBox="0 0 512.000000 512.000000"
 preserveAspectRatio="xMidYMid meet">
<metadata>
Created by potrace 1.11, written by Peter Selinger 2001-2013
</metadata>
<g transform="translate(0.000000,512.000000) scale(0.100000,-0.100000)"
fill="#000000" stroke="none">
<path d="M1535 4456 c-77 -24 -118 -55 -153 -119 -15 -29 -17 -82 -22 -556
l-5 -524 -30 -10 c-16 -5 -58 -22 -93 -38 -119 -54 -261 -224 -287 -345 -35
-158 -20 -290 46 -415 35 -65 123 -161 186 -203 43 -28 148 -75 171 -76 9 0
12 -108 13 -502 0 -277 2 -513 5 -526 8 -46 45 -103 86 -132 97 -71 220 -62
300 21 45 47 59 89 73 233 14 137 71 239 177 319 118 88 297 135 539 141 73 1
78 0 84 -35 7 -37 54 -130 87 -172 77 -101 164 -164 276 -201 l52 -18 1 -271
c1 -150 3 -285 5 -300 4 -34 55 -144 81 -172 31 -34 106 -91 144 -108 37 -17
134 -35 165 -31 78 11 105 19 157 46 101 54 176 157 197 270 6 28 10 248 10
489 0 309 3 445 12 463 13 30 29 36 106 42 149 10 279 42 385 95 295 148 490
404 550 722 18 95 15 284 -6 377 -41 182 -161 396 -282 503 -11 10 -34 31 -52
48 -56 52 -200 136 -287 167 -179 65 -164 64 -1011 67 -423 1 -801 5 -840 9
-167 19 -322 79 -412 160 -93 84 -139 195 -147 348 -5 87 -27 139 -80 185 -54
48 -137 68 -201 49z m-175 -1747 l0 -290 -41 23 c-143 80 -197 291 -111 430
33 52 117 127 145 128 4 0 7 -131 7 -291z m1657 -1013 c18 -22 23 -39 23 -86
l0 -60 -37 21 c-56 30 -144 135 -128 151 3 2 30 4 62 3 48 -2 60 -6 80 -29z"/>
<path d="M455 3483 c-75 -19 -114 -100 -83 -168 10 -23 236 -219 308 -268 91
-62 211 41 171 147 -18 47 -346 306 -373 295 -2 -1 -12 -4 -23 -6z"/>
<path d="M250 2830 c-58 -7 -86 -23 -105 -60 -31 -59 -11 -130 45 -162 24 -14
63 -16 264 -15 l236 2 30 30 c38 38 47 88 27 137 -26 61 -51 68 -264 71 -104
1 -208 0 -233 -3z"/>
<path d="M707 2389 c-21 -6 -109 -69 -137 -99 -3 -3 -42 -36 -87 -73 -105 -87
-121 -110 -118 -166 4 -64 48 -106 114 -106 43 0 54 5 122 60 41 33 76 62 79
65 3 3 32 28 65 55 65 54 104 92 106 103 1 4 3 23 4 42 5 82 -69 142 -148 119z"/>
</g>
</svg>
