<svg xmlns="http://www.w3.org/2000/svg" xmlns:xlink="http://www.w3.org/1999/xlink" viewBox="0 0 1035.2 732.1">
  <defs>
    <linearGradient id="linear-gradient" x1="423.2" y1="173.8" x2="433.8" y2="362.3" xlink:href="#radial-gradient"/>
    <linearGradient id="linear-gradient-2" x1="346.6" y1="84.1" x2="446.2" y2="176" xlink:href="#radial-gradient"/>
    <linearGradient id="linear-gradient-3" x1="383" y1="264.3" x2="471.5" y2="264.3" xlink:href="#radial-gradient"/>
    <linearGradient id="linear-gradient-4" x1="292.5" y1="167.1" x2="227.1" y2="372.1" xlink:href="#radial-gradient"/>
    <linearGradient id="linear-gradient-5" x1="222.8" y1="69.4" x2="281.4" y2="280.7" xlink:href="#radial-gradient"/>
    <linearGradient id="linear-gradient-6" x1="278.1" y1="277.5" x2="330.5" y2="277.5" xlink:href="#radial-gradient"/>
    <linearGradient id="linear-gradient-7" x1="336.5" y1="267.7" x2="293.8" y2="280.1" gradientUnits="userSpaceOnUse">
      <stop offset="0" stop-color="#5a69eb"/>
      <stop offset=".2" stop-color="#4c5bdd"/>
      <stop offset=".7" stop-color="#3342c1"/>
      <stop offset="1" stop-color="#2938b7"/>
    </linearGradient>
    <linearGradient id="linear-gradient-8" x1="241.9" y1="359" x2="246.6" y2="302.5" xlink:href="#radial-gradient"/>
    <linearGradient id="linear-gradient-9" x1="247.7" y1="282.7" x2="243.6" y2="324.1" xlink:href="#radial-gradient"/>
    <linearGradient id="linear-gradient-10" x1="197.2" y1="358.1" x2="259.4" y2="358.1" xlink:href="#radial-gradient"/>
    <linearGradient id="linear-gradient-11" x1="244.1" y1="354.4" x2="215.9" y2="346.9" xlink:href="#radial-gradient"/>
    <linearGradient id="linear-gradient-12" x1="624.2" y1="285.2" x2="634.8" y2="473.7" xlink:href="#radial-gradient"/>
    <linearGradient id="linear-gradient-13" x1="547.6" y1="195.4" x2="647.1" y2="287.4" xlink:href="#radial-gradient"/>
    <linearGradient id="linear-gradient-14" x1="583.9" y1="375.7" x2="672.5" y2="375.7" xlink:href="#radial-gradient"/>
    <linearGradient id="linear-gradient-15" x1="493.4" y1="278.4" x2="428" y2="483.5" xlink:href="#radial-gradient"/>
    <linearGradient id="linear-gradient-16" x1="423.8" y1="180.8" x2="482.3" y2="392.1" xlink:href="#radial-gradient"/>
    <linearGradient id="linear-gradient-17" x1="479.1" y1="388.9" x2="531.5" y2="388.9" xlink:href="#radial-gradient"/>
    <linearGradient id="linear-gradient-18" x1="537.5" y1="379.1" x2="494.8" y2="391.5" xlink:href="#linear-gradient-7"/>
    <linearGradient id="linear-gradient-19" x1="442.9" y1="470.4" x2="447.6" y2="413.9" xlink:href="#radial-gradient"/>
    <linearGradient id="linear-gradient-20" x1="448.7" y1="394.1" x2="444.5" y2="435.5" xlink:href="#radial-gradient"/>
    <linearGradient id="linear-gradient-21" x1="398.2" y1="469.5" x2="460.3" y2="469.5" xlink:href="#radial-gradient"/>
    <linearGradient id="linear-gradient-22" x1="445.1" y1="465.8" x2="416.8" y2="458.3" xlink:href="#radial-gradient"/>
    <linearGradient id="linear-gradient-23" x1="826" y1="408.3" x2="836.5" y2="596.8" xlink:href="#radial-gradient"/>
    <linearGradient id="linear-gradient-24" x1="749.4" y1="318.6" x2="848.9" y2="410.5" xlink:href="#radial-gradient"/>
    <linearGradient id="linear-gradient-25" x1="785.7" y1="498.8" x2="874.3" y2="498.8" xlink:href="#radial-gradient"/>
    <linearGradient id="linear-gradient-26" x1="695.2" y1="401.6" x2="629.8" y2="606.6" xlink:href="#radial-gradient"/>
    <linearGradient id="linear-gradient-27" x1="625.6" y1="303.9" x2="684.1" y2="515.3" xlink:href="#radial-gradient"/>
    <linearGradient id="linear-gradient-28" x1="680.9" y1="512" x2="733.3" y2="512" xlink:href="#radial-gradient"/>
    <linearGradient id="linear-gradient-29" x1="739.3" y1="502.3" x2="696.5" y2="514.6" xlink:href="#linear-gradient-7"/>
    <linearGradient id="linear-gradient-30" x1="644.7" y1="593.6" x2="649.4" y2="537" xlink:href="#radial-gradient"/>
    <linearGradient id="linear-gradient-31" x1="650.5" y1="517.3" x2="646.3" y2="558.7" xlink:href="#radial-gradient"/>
    <linearGradient id="linear-gradient-32" x1="600" y1="592.6" x2="662.1" y2="592.6" xlink:href="#radial-gradient"/>
    <linearGradient id="linear-gradient-33" x1="646.9" y1="588.9" x2="618.6" y2="581.5" xlink:href="#radial-gradient"/>
    <linearGradient id="linear-gradient-34" x1="317.3" y1="579.7" x2="331.6" y2="553.5" gradientUnits="userSpaceOnUse">
      <stop offset="0" stop-color="#fc00fc"/>
      <stop offset="1" stop-color="#480ba8"/>
    </linearGradient>
    <linearGradient id="linear-gradient-35" x1="325.6" y1="588.4" x2="339.9" y2="562.4" xlink:href="#linear-gradient-34"/>
    <linearGradient id="linear-gradient-36" x1="303.2" y1="585.7" x2="361.9" y2="478.7" gradientUnits="userSpaceOnUse">
      <stop offset="0" stop-color="#efc36a"/>
      <stop offset="1" stop-color="#c99a49"/>
    </linearGradient>
    <linearGradient id="linear-gradient-37" x1="313.8" y1="479" x2="361.6" y2="391.9" gradientUnits="userSpaceOnUse">
      <stop offset="0" stop-color="#3f2a06"/>
      <stop offset="1" stop-color="#231805"/>
    </linearGradient>
    <linearGradient id="linear-gradient-38" x1="242" y1="526.5" x2="258.9" y2="526.5" xlink:href="#linear-gradient-37"/>
    <linearGradient id="linear-gradient-39" x1="227.3" y1="517.2" x2="244.2" y2="517.2" xlink:href="#linear-gradient-37"/>
    <linearGradient id="linear-gradient-40" x1="250.1" y1="518" x2="259.3" y2="518" xlink:href="#linear-gradient-36"/>
    <linearGradient id="linear-gradient-41" x1="235.3" y1="507.1" x2="244.5" y2="507.1" xlink:href="#linear-gradient-36"/>
    <linearGradient id="linear-gradient-42" x1="181.2" y1="354.8" x2="241.5" y2="371.1" xlink:href="#linear-gradient-36"/>
    <linearGradient id="linear-gradient-43" x1="316.8" y1="405.7" x2="242.6" y2="374.4" xlink:href="#linear-gradient-36"/>
    <linearGradient id="linear-gradient-44" x1="267.6" y1="413.8" x2="251.9" y2="405.1" xlink:href="#linear-gradient-36"/>
    <linearGradient id="linear-gradient-45" x1="235.6" y1="412.6" x2="268.6" y2="352.2" xlink:href="#linear-gradient-36"/>
    <linearGradient id="linear-gradient-46" x1="234.6" y1="374.5" x2="267.3" y2="374.5" xlink:href="#linear-gradient-37"/>
    <linearGradient id="linear-gradient-47" x1="376" y1="465.5" x2="303.5" y2="434.9" gradientTransform="matrix(1.14 .02 .02 1.07 -35 -36)" xlink:href="#linear-gradient-36"/>
    <linearGradient id="linear-gradient-48" x1="382.4" y1="427.1" x2="372.3" y2="435.5" xlink:href="#linear-gradient-36"/>
    <linearGradient id="linear-gradient-49" x1="244.4" y1="559.2" x2="168.3" y2="527.1" gradientTransform="matrix(-.13 1.15 1.1 .23 -267 121)" xlink:href="#linear-gradient-36"/>
    <linearGradient id="linear-gradient-50" x1="233" y1="524" x2="223" y2="532.4" gradientTransform="matrix(-.13 1.01 1.03 .19 -234 164)" xlink:href="#linear-gradient-36"/>
    <linearGradient id="linear-gradient-51" x1="357" y1="534.4" x2="312.6" y2="465.2" xlink:href="#linear-gradient-34"/>
    <linearGradient id="linear-gradient-52" x1="380.2" y1="465.5" x2="364.5" y2="456.8" gradientTransform="matrix(.81 .01 .01 .86 34 60)" xlink:href="#linear-gradient-36"/>
    <linearGradient id="linear-gradient-53" x1="316.4" y1="459.6" x2="343.7" y2="409.8" xlink:href="#linear-gradient-36"/>
    <linearGradient id="linear-gradient-54" x1="324.1" y1="441.8" x2="343.2" y2="407.1" xlink:href="#linear-gradient-37"/>
    <linearGradient id="linear-gradient-55" x1="157.8" y1="298.9" x2="139.7" y2="284" gradientTransform="matrix(-.66 .96 -.98 -.55 591 430)" xlink:href="#linear-gradient-36"/>
    <linearGradient id="linear-gradient-56" x1="186" y1="514.2" x2="109.6" y2="396.7" xlink:href="#linear-gradient-37"/>
    <linearGradient id="linear-gradient-57" x1="180.6" y1="517.7" x2="104.2" y2="400.3" xlink:href="#linear-gradient-37"/>
    <linearGradient id="linear-gradient-58" x1="191.9" y1="510.4" x2="115.5" y2="392.9" xlink:href="#linear-gradient-36"/>
    <linearGradient id="linear-gradient-59" x1="187.1" y1="513.5" x2="110.7" y2="396" xlink:href="#linear-gradient-36"/>
    <linearGradient id="linear-gradient-60" x1="241" y1="483.9" x2="161.7" y2="362" xlink:href="#linear-gradient-36"/>
    <linearGradient id="linear-gradient-61" x1="159.2" y1="454.9" x2="183.7" y2="454.9" xlink:href="#linear-gradient-37"/>
    <linearGradient id="linear-gradient-62" x1="235.4" y1="482.1" x2="159.1" y2="364.6" xlink:href="#linear-gradient-36"/>
    <linearGradient id="linear-gradient-63" x1="161.5" y1="390.3" x2="174.2" y2="349.5" xlink:href="#linear-gradient-36"/>
    <linearGradient id="linear-gradient-64" x1="232.2" y1="455.6" x2="170.3" y2="360.3" xlink:href="#linear-gradient-37"/>
    <linearGradient id="linear-gradient-65" x1="158.1" y1="320.3" x2="160.3" y2="330" gradientTransform="rotate(-8 101 380)" xlink:href="#linear-gradient-36"/>
    <linearGradient id="linear-gradient-66" x1="188.6" y1="430.6" x2="154.5" y2="378.1" gradientUnits="userSpaceOnUse">
      <stop offset="0" stop-color="#d4b900"/>
      <stop offset="1" stop-color="#bf5b00"/>
    </linearGradient>
    <linearGradient id="linear-gradient-67" x1="135.2" y1="482.7" x2="140.2" y2="452.5" xlink:href="#linear-gradient-36"/>
    <linearGradient id="linear-gradient-68" x1="126.1" y1="477.3" x2="130.6" y2="450.5" gradientTransform="matrix(1 -.03 .03 1.1 -14 -44)" xlink:href="#linear-gradient-36"/>
    <linearGradient id="linear-gradient-69" x1="134.7" y1="462.4" x2="138.1" y2="441.9" gradientUnits="userSpaceOnUse">
      <stop offset="0" stop-color="#1369b7"/>
      <stop offset="1" stop-color="#19129e"/>
    </linearGradient>
    <linearGradient id="linear-gradient-70" x1="291.7" y1="683.7" x2="84.8" y2="365.4" xlink:href="#linear-gradient-36"/>
    <linearGradient id="linear-gradient-71" x1="203" y1="514.3" x2="124.6" y2="393.7" xlink:href="#linear-gradient-36"/>
    <linearGradient id="linear-gradient-72" x1="130" y1="418.3" x2="140.7" y2="383.8" xlink:href="#linear-gradient-36"/>
    <linearGradient id="linear-gradient-73" x1="277.3" y1="610.2" x2="108.9" y2="351.1" xlink:href="#linear-gradient-37"/>
    <linearGradient id="linear-gradient-74" x1="316.1" y1="704.7" x2="103.8" y2="378.2" xlink:href="#linear-gradient-37"/>
    <linearGradient id="linear-gradient-75" x1="213.6" y1="536.1" x2="134.2" y2="414.1" xlink:href="#linear-gradient-36"/>
    <linearGradient id="linear-gradient-76" x1="389.1" y1="535.9" x2="496.7" y2="535.9" gradientUnits="userSpaceOnUse">
      <stop offset="0" stop-color="#191619"/>
      <stop offset="1" stop-color="#1e1c1e"/>
    </linearGradient>
    <linearGradient id="linear-gradient-77" x1="749.4" y1="318.4" x2="848.9" y2="410.3" xlink:href="#radial-gradient"/>
    <radialGradient id="radial-gradient" cx="483.9" cy="453.7" r="932" gradientUnits="userSpaceOnUse">
      <stop offset="0" stop-color="#5a69eb"/>
      <stop offset="1" stop-color="#2938b7"/>
    </radialGradient>
    <style>
      .cls-4{fill:#5a69eb}.cls-25,.cls-90{fill:none;stroke-miterlimit:10}.cls-25{stroke:#fff;stroke-width:1.34px}.cls-45{fill:#fff}.cls-38{fill:#211989}.cls-77{fill:#2e3192}.cls-90{stroke:#e900fc;stroke-linecap:round;stroke-width:7px}.cls-92{fill:#e900fc}.cls-93{fill:#662d91}
    </style>
  </defs>
  <g id="Layer_2" data-name="Layer 2">
    <g id="Layer_2-2" data-name="Layer 2">
      <path d="M457 176C244 186-5 323 0 469c6 147 266 262 475 263 224 2 491-128 493-273 2-148-273-294-511-283z" fill="url(#radial-gradient)" opacity=".9"/>
      <path d="M514 149v151l-170 99V247zm-39 125v-69a2 2 0 00-3-1h-1l-85 49a7 7 0 00-3 6v68a2 2 0 003 2l85-49a7 7 0 004-6z" fill="url(#linear-gradient)"/>
      <path d="M438 3l76 146-170 98-76-146a5 5 0 00-6-3h-1L430 1a6 6 0 018 2z" fill="url(#linear-gradient-2)"/>
      <path class="cls-4" d="M475 205v69a7 7 0 01-4 6l-85 49a2 2 0 01-3-2v-4a2 2 0 003 1l82-47a7 7 0 004-6v-66a2 2 0 00-1-1h1a2 2 0 013 1z"/>
      <path d="M472 205v66a7 7 0 01-4 6l-82 47a2 2 0 01-3-1v-64a7 7 0 013-6l85-49a2 2 0 011 1z" fill="url(#linear-gradient-3)"/>
      <path d="M344 247v152l-79-46v-69a9 9 0 00-1-5 11 11 0 00-4-5l-30-17a3 3 0 00-4 2v71l-53-30V149zm-13 64v-40a3 3 0 00-2-2l-47-27a3 3 0 00-4 2v40a3 3 0 001 2l48 27a3 3 0 004-2z" fill="url(#linear-gradient-4)"/>
      <path d="M268 101l76 146-171-98 87-50a5 5 0 012-1 5 5 0 016 3z" fill="url(#linear-gradient-5)"/>
      <path d="M331 309v2a3 3 0 01-4 2l-48-27a3 3 0 01-1-2v-40a3 3 0 014-2l47 27a3 3 0 012 2v1a2 2 0 00-2-3l-47-27a1 1 0 00-2 1v40a2 2 0 001 2l46 27a2 2 0 004-3z" fill="url(#linear-gradient-6)"/>
      <path d="M331 272v37a2 2 0 01-4 3l-46-27a2 2 0 01-1-2v-40a1 1 0 012-1l47 27a2 2 0 012 3z" fill="url(#linear-gradient-7)"/>
      <path d="M264 279a9 9 0 011 5v67l-37-22v-68a3 3 0 014-3l28 17a9 9 0 014 4z" fill="url(#linear-gradient-8)"/>
      <path d="M265 351v2l-39-23v-71a3 3 0 014-2l30 17a11 11 0 014 5 9 9 0 00-4-4l-28-17a3 3 0 00-4 3v68z" fill="url(#linear-gradient-9)"/>
      <path d="M259 354a3 3 0 010 2 2 2 0 01-1 1l-22 12a3 3 0 01-3 0l-35-20a3 3 0 01-1-3 1 1 0 000 1 2 2 0 001 0 2 2 0 000 1l35 20a3 3 0 003 0l22-13a3 3 0 001 0 2 2 0 000-1z" fill="url(#linear-gradient-10)"/>
      <path d="M259 354a2 2 0 010 1 2 2 0 000-2v1z"/>
      <path d="M259 354v-1a2 2 0 010 1z"/>
      <path d="M259 353a2 2 0 010 2h-1l-22 13a3 3 0 01-3 0l-35-20a2 2 0 010-2 2 2 0 010-1l22-13a3 3 0 013 0l35 21a2 2 0 011 0z" fill="url(#linear-gradient-11)"/>
      <path d="M259 355zM258 355h1a3 3 0 01-1 0zM198 347a2 2 0 01-1 0 1 1 0 010-1 6 6 0 011-1 2 2 0 000 2z"/>
      <path d="M198 345a6 6 0 00-1 1 2 2 0 011-1z"/>
      <path d="M715 260v152l-170 98V359zm-39 125v-68a2 2 0 00-3-2h-1l-85 49a7 7 0 00-3 6v68a2 2 0 003 2l85-49a7 7 0 004-6z" fill="url(#linear-gradient-12)"/>
      <path d="M639 115l76 145-170 99-77-147a5 5 0 00-6-2v-1l169-97a6 6 0 018 3z" fill="url(#linear-gradient-13)"/>
      <path class="cls-4" d="M676 317v68a7 7 0 01-4 6l-85 49a2 2 0 01-3-2v-4a2 2 0 003 2l82-48a7 7 0 003-6v-65a2 2 0 000-2h1a2 2 0 013 2z"/>
      <path d="M672 317v65a7 7 0 01-3 6l-82 48a2 2 0 01-3-2v-64a7 7 0 013-6l85-49a2 2 0 010 2z" fill="url(#linear-gradient-14)"/>
      <path d="M545 359v151l-79-45v-70a9 9 0 00-1-5 11 11 0 00-4-4l-30-17a3 3 0 00-4 2v71l-53-30V260zm-14 63v-39a3 3 0 00-1-2l-47-28a3 3 0 00-4 2v40a3 3 0 001 2l48 28a3 3 0 003-3z" fill="url(#linear-gradient-15)"/>
      <path d="M468 212l77 147-171-99 87-50a5 5 0 012 0 5 5 0 015 2z" fill="url(#linear-gradient-16)"/>
      <path d="M531 421v1a3 3 0 01-3 3l-48-28a3 3 0 01-1-2v-40a3 3 0 014-2l47 28a3 3 0 011 2 2 2 0 00-1-2l-47-27a1 1 0 00-2 0v41a2 2 0 001 2l46 26a2 2 0 003-2z" fill="url(#linear-gradient-17)"/>
      <path d="M531 383v38a2 2 0 01-3 2l-46-26a2 2 0 01-1-2v-41a1 1 0 012 0l47 27a2 2 0 011 2z" fill="url(#linear-gradient-18)"/>
      <path d="M465 390a9 9 0 011 5v68l-37-22v-69a3 3 0 013-2l29 17a9 9 0 014 3z" fill="url(#linear-gradient-19)"/>
      <path d="M466 463v2l-39-23v-71a3 3 0 014-2l30 17a11 11 0 014 4 9 9 0 00-4-3l-28-17a3 3 0 00-4 2v69z" fill="url(#linear-gradient-20)"/>
      <path d="M460 465a3 3 0 010 2 2 2 0 01-1 1l-22 13a3 3 0 01-3 0l-35-21a3 3 0 01-1-2 2 2 0 001 1l35 21a3 3 0 003 0l22-13a2 2 0 001 0 1 1 0 000-1 2 2 0 000-1z" fill="url(#linear-gradient-21)"/>
      <path d="M460 465a2 2 0 010 1 2 2 0 000-1zM460 465z"/>
      <path d="M460 465a2 2 0 010 1 1 1 0 010 1h-1l-22 13a3 3 0 01-3 0l-35-21a2 2 0 01-1-2 2 2 0 011-1l22-12a3 3 0 013 0l35 20a2 2 0 011 1z" fill="url(#linear-gradient-22)"/>
      <path d="M460 466a1 1 0 010 1 1 1 0 000-1zM459 467h1a2 2 0 01-1 0zM399 459a2 2 0 01-1-1 8 8 0 010-1 2 2 0 001 2z"/>
      <path d="M398 457a8 8 0 000 1 2 2 0 010-1z"/>
      <path class="cls-25" d="M609 596l-131 75M597 588l24 14M465 664l25 14"/>
      <text transform="matrix(.82 -.4 .91 .42 516 641)" fill="#fff" font-size="26.3" font-family="LexendDeca-Regular,Lexend Deca">
        1KM
      </text>
      <path d="M917 383v152l-171 98V482zm-40 125v-68a2 2 0 00-3-2v1l-85 48a7 7 0 00-3 6v69a2 2 0 003 1l85-49a7 7 0 003-6z" fill="url(#linear-gradient-23)"/>
      <path d="M841 238l76 145-171 99-76-147a5 5 0 00-6-2v-1l168-97a6 6 0 019 3z" fill="url(#linear-gradient-24)"/>
      <path class="cls-4" d="M877 440v68a7 7 0 01-3 6l-85 49a2 2 0 01-3-1v-5a2 2 0 003 2l82-48a7 7 0 003-5v-66a2 2 0 000-1v-1a2 2 0 013 2z"/>
      <path d="M874 440v66a7 7 0 01-3 5l-82 48a2 2 0 01-3-2v-64a7 7 0 013-6l85-48a2 2 0 010 1z" fill="url(#linear-gradient-25)"/>
      <path d="M746 482v151l-78-45v-69a9 9 0 00-1-6 11 11 0 00-5-4l-30-17a3 3 0 00-4 2v71l-52-30V383zm-13 64v-40a3 3 0 00-1-2l-47-28a3 3 0 00-4 3v39a3 3 0 001 2l47 28a3 3 0 004-2z" fill="url(#linear-gradient-26)"/>
      <path d="M670 335l76 147-170-99 87-50a5 5 0 011 0 5 5 0 016 2z" fill="url(#linear-gradient-27)"/>
      <path d="M733 544v2a3 3 0 01-4 2l-47-28a3 3 0 01-1-2v-39a3 3 0 014-3l47 28a3 3 0 011 2 2 2 0 00-1-2l-48-27a1 1 0 00-1 1v40a2 2 0 001 2l46 26a2 2 0 003-2z" fill="url(#linear-gradient-28)"/>
      <path d="M733 506v38a2 2 0 01-3 2l-46-26a2 2 0 01-1-2v-40a1 1 0 011-1l48 27a2 2 0 011 2z" fill="url(#linear-gradient-29)"/>
      <path d="M667 513a9 9 0 011 6v67l-38-22v-69a3 3 0 014-2l29 17a9 9 0 014 3z" fill="url(#linear-gradient-30)"/>
      <path d="M668 586v2l-40-23v-71a3 3 0 014-2l30 17a11 11 0 015 4 9 9 0 00-4-3l-29-17a3 3 0 00-4 2v69z" fill="url(#linear-gradient-31)"/>
      <path d="M662 588a3 3 0 010 3 2 2 0 01-1 0l-22 13a3 3 0 01-3 0l-35-20a2 2 0 01-1-1 3 3 0 010-2 2 2 0 000 1 2 2 0 001 0l35 21a3 3 0 003 0l22-13a1 1 0 001 0 2 2 0 000-1z" fill="url(#linear-gradient-32)"/>
      <path d="M662 588a2 2 0 010 1 2 2 0 000-1zM662 588z"/>
      <path d="M662 588a2 2 0 010 1v1a1 1 0 01-1 0l-22 13a3 3 0 01-3 0l-35-20a2 2 0 01-1-1 2 2 0 010-2 2 2 0 011-1l22-12a3 3 0 013 0l35 20a2 2 0 011 1z" fill="url(#linear-gradient-33)"/>
      <path d="M662 590a1 1 0 01-1 0 1 1 0 001 0zM661 590zM600 582a2 2 0 010-1 8 8 0 010-1 2 2 0 000 2z"/>
      <path d="M600 580a8 8 0 000 1 2 2 0 010-1z"/>
      <path class="cls-38" d="M0 469c6 147 266 262 475 263h17L2 445a129 129 0 00-2 24z"/>
      <path d="M0 469c6 147 266 262 475 263h17L2 445a129 129 0 00-2 24z" opacity=".5" fill="url(#radial-gradient)"/>
      <path class="cls-38" d="M2 445l490 287 51-3L8 419a145 145 0 00-6 26z"/>
      <path d="M2 445l490 287 51-3L8 419a145 145 0 00-6 26z" fill="url(#radial-gradient)"/>
    </g>
    <g id="Layer_3" data-name="Layer 3">
      <path d="M322 563l-1 3-3 6c0 1 0 3 2 4s7-5 9-10v-4c-1-2-5-1-7 1z" fill="url(#linear-gradient-34)"/>
      <path d="M330 571c-2 1-1 2-3 5l-2 4a4 4 0 002 4c2 1 6-3 10-9v2l2-2a5 5 0 00-3-5c-2-1-5 0-6 1z" fill="url(#linear-gradient-35)"/>
      <path d="M331 506l1 7a421 421 0 01-2 60c-1 1-2 4-1 5s3 0 4-1a7 7 0 003-4c2-11 5-11 5-18a30 30 0 00-2-11l1-15c2-14 2-17 0-20-3-6-12-10-16-8-3 3-3 10-2 17 0 6 2 9 1 16v7 15a55 55 0 00-1 10l1 3c1 1 4-1 5-4v-5l1-4a77 77 0 000-13l2-37z" fill="url(#linear-gradient-36)"/>
      <path d="M321 418a10 10 0 00-1 3c-3 14 3 21 0 31-1 6-4 7-3 10 2 5 17 5 30 4l2-15c3-17 5-23 1-30a18 18 0 00-7-8c-8-3-18-1-22 5z" fill="url(#linear-gradient-37)"/>
      <path class="cls-45" d="M209 231v86a3 3 0 001 2l102 59a3 3 0 004-2v-86a3 3 0 00-2-2l-101-59a3 3 0 00-4 2z"/>
      <path d="M251 518a42 42 0 00-4 5 42 42 0 00-5 7 8 8 0 002 3 5 5 0 003 2l4-2a19 19 0 005-5 32 32 0 003-6 6 6 0 00-1-3h-2a43 43 0 01-5-1z" fill="url(#linear-gradient-38)"/>
      <path d="M237 509a41 41 0 00-10 11 9 9 0 002 4 5 5 0 003 2l4-2a19 19 0 005-5 33 33 0 003-6 6 6 0 00-1-3h-1a43 43 0 01-5-1z" fill="url(#linear-gradient-39)"/>
      <path d="M254 511l-2 9a3 3 0 00-2 3 2 2 0 002 2c2 0 4-1 5-4l2-9z" fill="url(#linear-gradient-40)"/>
      <path d="M239 500l-1 9a3 3 0 00-3 3 3 3 0 002 2c2 0 4-1 6-4l1-9z" fill="url(#linear-gradient-41)"/>
      <path d="M231 334a14 14 0 002 0 6 6 0 002 0c1-1 2-3 1-4a2 2 0 00-2 0l-1 1a6 6 0 01-1 2 12 12 0 00-6-5 7 7 0 00-1 1 5 5 0 00-2 3 4 4 0 001 3l-8 21-3 10a14 14 0 00-1 5 13 13 0 001 6l7 14q12 19 16 18 2-1 2-7a178 178 0 00-8-17 186 186 0 00-8-16l5-20 4-15z" fill="url(#linear-gradient-42)"/>
      <path d="M291 372a9 9 0 01-2-4 7 7 0 010-4l1-2a1 1 0 011 1v2a5 5 0 000 2 12 12 0 017 4 7 7 0 01-1 1 8 8 0 01-1 3l-2 5-8 17a6 6 0 01-1 3 6 6 0 01-4 3 56 56 0 01-6 4 58 58 0 01-8 4 60 60 0 01-8 3l-3-6 10-6 3-2a87 87 0 0010-6 48 48 0 013-9 49 49 0 019-13z" fill="url(#linear-gradient-43)"/>
      <path d="M252 470l2 1v30a115 115 0 01-2 15 4 4 0 004 2 4 4 0 003-3 81 81 0 004-24v-15c1-4 2-7 1-11a27 27 0 00-3-10l-16-5-3 20-3 25-2 13s5 2 7 1l1-4a38 38 0 002-5l5-28v-2z" fill="#2405c1"/>
      <path d="M241 456v-16c0-7 0-15-3-23a35 35 0 00-8-12c4-8 5-11 6-10l2 5a14 14 0 002 4 24 24 0 008 2 19 19 0 009 0 17 17 0 007-5l3 13-5 2v7l2 37c-7 2-20 5-23 0v-4z" fill="#06bf06"/>
      <path d="M246 398v11a4 4 0 007 0l2-11z" fill="url(#linear-gradient-44)"/>
      <path d="M237 373v11c1 11 2 16 4 18 4 5 12 6 18 3 4-3 5-7 6-13 1-7 3-15-2-20-7-7-22-6-26 1z" fill="url(#linear-gradient-45)"/>
      <path d="M238 363c-2 2-3 6-3 7a17 17 0 002 11v-7a8 8 0 015-2c6-2 11 1 12 1l5 4 5 4a13 13 0 011 6v1l2-1c2-5-2-13-2-13l-4-7a19 19 0 00-10-5c-4-1-9-2-13 1z" fill="url(#linear-gradient-46)"/>
      <path d="M370 440a10 10 0 01-3-5 7 7 0 010-4l1-2a1 1 0 012 1l-1 2a5 5 0 000 2 14 14 0 014 2 14 14 0 014 3 7 7 0 010 1 8 8 0 01-2 3l-3 5a94 94 0 01-10 18 7 7 0 01-5 3 66 66 0 01-11 1h-8l1-11c1 4 4 5 4 6l9-1 4-1a99 99 0 006-9 97 97 0 008-14z" fill="url(#linear-gradient-47)"/>
      <path d="M369 436a7 7 0 004 2c1 1 2 2 4 1l2-3a5 5 0 000-2c-1-3-7-6-9-4-2 1-1 4-1 6z" fill="url(#linear-gradient-48)"/>
      <path d="M288 490a12 12 0 00-4-4 7 7 0 00-5-1l-2 2a2 2 0 000 1h3a6 6 0 012 1 15 15 0 001 4 15 15 0 003 4 8 8 0 001 0 8 8 0 003-1l6-2a92 92 0 0019-7 7 7 0 003-1 7 7 0 001-3c2-3 1-5 1-10a31 31 0 011-3l1-11c-4 4-5 7-5 9l-2 9-2 3a96 96 0 01-25 10z" fill="url(#linear-gradient-49)"/>
      <path d="M284 489a8 8 0 012 4v4l-3 1a5 5 0 01-2 0c-4-1-6-8-3-10 1-1 4 0 6 1z" fill="url(#linear-gradient-50)"/>
      <path d="M338 470a49 49 0 001 9l2 10c1 5 3 14 3 35l-25-2c5-28 5-39 4-44a47 47 0 01-1-19 9 9 0 012-2c4-3 13-2 15 2 1 3-1 4-1 11z" fill="url(#linear-gradient-51)"/>
      <path d="M326 451v9a3 3 0 003 3 3 3 0 003-3l1-9z" fill="url(#linear-gradient-52)"/>
      <path d="M317 427v9c1 9 1 13 3 15 4 4 11 5 16 2 3-2 4-6 5-10 1-6 2-13-2-17-5-6-18-5-22 1z" fill="url(#linear-gradient-53)"/>
      <path d="M325 419l-6 5c-2 3-3 6-2 7s2-1 5-2c0 0 3-1 7 1 9 2 13 6 14 5l-1-6c-1-5 1-7-1-10s-8-3-9-2l-7 2z" fill="url(#linear-gradient-54)"/>
      <path d="M198 439l2 7a6 6 0 00-6 4 17 17 0 01-2-11 95 95 0 012-26 48 48 0 01-5-8l-3-7-4-5c0-2 1-4 3-4 2-1 4 1 6 3 2 1 5 5 8 12l3 9a27 27 0 01-1 5l-1 8-2 13z" fill="url(#linear-gradient-55)"/>
      <path d="M172 485a37 37 0 00-8 11 8 8 0 002 3 5 5 0 002 1l4-1a17 17 0 004-5 29 29 0 003-5 5 5 0 00-1-2v-1h-1a38 38 0 01-5-1z" fill="url(#linear-gradient-56)"/>
      <path d="M159 477a36 36 0 00-4 4 37 37 0 00-4 6 8 8 0 002 3 5 5 0 002 2l4-1a17 17 0 004-5 29 29 0 003-5 5 5 0 00-1-3h-1a38 38 0 01-5-1z" fill="url(#linear-gradient-57)"/>
      <path d="M175 479l-2 8a3 3 0 00-2 3 2 2 0 002 1c1 1 3-1 5-3l1-8z" fill="url(#linear-gradient-58)"/>
      <path d="M162 470l-2 7a3 3 0 00-2 3 2 2 0 002 2c1 0 3-1 5-4l1-8z" fill="url(#linear-gradient-59)"/>
      <path d="M154 324a5 5 0 003-2s2-2 1-3l-2-2a2 2 0 00-1 2 2 2 0 000 1 10 10 0 00-2-2 10 10 0 00-4-2l-1-2c-1 0-2 3-1 6a6 6 0 001 3l-7 18-3 9a13 13 0 00-1 4 12 12 0 001 6l6 12q11 18 15 16l1-6a161 161 0 00-6-15l-3-4-5-10 5-18 3-11z" fill="url(#linear-gradient-60)"/>
      <path d="M173 442l2 1-1 17v10a101 101 0 01-1 13 4 4 0 004 2 4 4 0 003-2 72 72 0 003-22v-13-10a24 24 0 00-2-8l-15-6-3 18c0 9 0 13-2 22l-2 12c1 0 5 2 7 1l1-3a35 35 0 001-5l5-25v-2z" fill="url(#linear-gradient-61)"/>
      <path d="M168 379v9a3 3 0 006 0l1-9z" fill="url(#linear-gradient-62)"/>
      <path d="M158 358l2 8 3 13c1 1 5 7 9 7 5-1 7-11 8-15 2-5 3-9 1-12-4-7-20-6-23-1z" fill="url(#linear-gradient-63)"/>
      <path d="M166 351c-1 0-5 1-7 4a9 9 0 00-1 5 13 13 0 002 6 26 26 0 01-1-3v-6c2-2 5-1 12-1l6 1a9 9 0 013 4c3 5 0 10 0 10s6-8 2-14a12 12 0 00-5-5 16 16 0 00-11-1z" fill="url(#linear-gradient-64)"/>
      <path d="M147 318l4 3h4l1-3a4 4 0 000-1c-1-3-5-4-8-3-1 1-2 3-1 4z" fill="url(#linear-gradient-65)"/>
      <path d="M163 430v-14c0-8 1-15-3-20a24 24 0 00-7-9c3-10 5-12 6-11l1 4a13 13 0 002 4 22 22 0 007 2h8a18 18 0 016 0 15 15 0 016 3l-5 10-2-5v7l2 33c-6 1-18 4-21 0v-4z" fill="url(#linear-gradient-66)"/>
      <path class="cls-45" d="M193 440l91 52v45l-92-54 1-43z"/>
      <path class="cls-77" d="M135 475l-1 2 1 3a3 3 0 002 1c2 0 2-2 2-2a4 4 0 00-1-4 3 3 0 00-3 0z"/>
      <path d="M138 455l-1 8v2a60 60 0 01-1 7v2 2a1 1 0 001 0l1-1a35 35 0 011-6l1-2v-3l2-6v-3h-4z" fill="url(#linear-gradient-67)"/>
      <path class="cls-77" d="M127 469l-3 2-2 2a3 3 0 002 2c2 1 4-1 4-2l1-3a2 2 0 00-2-1z"/>
      <path d="M129 450a19 19 0 00-2 9v9c-1 2-2 3-1 4s2 0 3-2a3 3 0 000-1l1-5a16 16 0 000-3l1-3 2-6c0-1-1-2-4-2z" fill="url(#linear-gradient-68)"/>
      <path d="M130 441l-3 12a8 8 0 006 4l2-4v4a11 11 0 008 2 10 10 0 002 0l-1-15z" fill="url(#linear-gradient-69)"/>
      <path d="M128 421a40 40 0 00-4 4 40 40 0 00-2 4 72 72 0 00-2-8 71 71 0 00-6-13 4 4 0 00-1-2 5 5 0 00-6-1l-2 3 6 2c1 1 5 17 8 22l3 2a4 4 0 002-1c3-2 3-4 6-10v-2h-2z" fill="url(#linear-gradient-70)"/>
      <path d="M134 408l-1 10a3 3 0 007 0l1-10z" fill="url(#linear-gradient-71)"/>
      <path d="M129 389a9 9 0 00-2 2 15 15 0 00-2 10 8 8 0 000 3 9 9 0 002 5 11 11 0 009 4c6 0 12-9 11-16 0-1-1-6-5-8s-10-3-13 0z" fill="url(#linear-gradient-72)"/>
      <path d="M125 387a2 2 0 00-4 0v4a3 3 0 003 2 4 4 0 000 2l2 2a2 2 0 001-2 3 3 0 001 1h2a2 2 0 000-2 3 3 0 002 2h2v-3 2h2a2 2 0 001-2 2 2 0 001 1 2 2 0 001-1 2 2 0 000-1l1 1a1 1 0 003-1 2 2 0 00-1-2l2 3 1 3 2 6a2 2 0 002-1l-1-6a11 11 0 010-2l-1-2-2-4a4 4 0 00-2-2l-1 1-3-3-2 2a2 2 0 00-2-1 2 2 0 00-2 1 1 1 0 00-2 0 2 2 0 00-1 1l-2-1a2 2 0 00-1 2c1-1 0-2-1-2l-1 2z" fill="url(#linear-gradient-73)"/>
      <path d="M145 444l1 3c-1 1-6 1-18-4l3-21-2 3a7 7 0 01-3-3 11 11 0 012-4c4-4 10-4 14-3a16 16 0 016 4 17 17 0 014 6 4 4 0 01-2 1 4 4 0 01-2 0l-2-1-1 10v9z" fill="url(#linear-gradient-74)"/>
      <path d="M149 427a10 10 0 011 5l-8 8h1l1 3c1 0 2 0 2-2a3 3 0 000-2l6-4a4 4 0 001-2 4 4 0 000-2 6 6 0 000-2 12 12 0 01-1-2l-1-2a2 2 0 00-3 1l1 1z" fill="url(#linear-gradient-75)"/>
      <path d="M107 414a1 1 0 003 0v-31h-3z"/>
      <path class="cls-45" d="M89 357v32l30 17 1-31-31-18z"/>
      <path d="M357 575l-3 3 1-4 68-104 2 2z" fill="#3a373a"/>
      <path d="M389 524a88 88 0 0114 22c5 13 3 17 9 24s10 7 18 16a67 67 0 019 12l58-51a82 82 0 00-17-15l-18-10c-8-7-9-14-14-23-4-7-12-17-27-25z" fill="url(#linear-gradient-76)"/>
      <ellipse cx="355.1" cy="580.3" rx="12" ry="4.6" fill="#4f4f4f"/>
      <path d="M359 568l-1 3 3-1v2l-3 6-2 3h-5a3 3 0 010-3l6-9z"/>
    </g>
    <g id="Layer_5" data-name="Layer 5">
      <path class="cls-90" d="M36 359a195 195 0 01-5-24"/>
      <path d="M30 285c3-24 9-51 24-81 8-18 34-68 92-98 16-8 58-30 114-21 76 11 117 69 125 82 27 38 32 75 37 101 21 103 97 277 208 301 74 17 174-33 187-40 12-5 21-10 39-21 40-23 69-39 99-65 45-39 61-70 67-84 11-26 11-40 8-50-4-17-19-35-37-42-29-11-68 5-100 19" stroke-dasharray="49.68 49.68" stroke="#e900fc" stroke-linecap="round" stroke-width="7" fill="none" stroke-miterlimit="10"/>
      <path class="cls-90" d="M870 294h-3a77 77 0 01-22 0"/>
      <circle class="cls-92" cx="122.9" cy="117.5" r="33.2"/>
      <ellipse class="cls-45" cx="120.1" cy="117.5" rx="17.3" ry="14.6"/>
      <path class="cls-45" d="M124 128l-7 4-7 4a1 1 0 01-2-1 16 16 0 001-4 16 16 0 001-4l1-1c10 0 13 1 13 2z"/>
      <ellipse class="cls-93" cx="127.6" cy="112.2" rx="17.3" ry="14.6"/>
      <path class="cls-93" d="M124 122c0 1 2 3 7 5l7 4a1 1 0 002-2 16 16 0 01-2-3 16 16 0 010-5h-2c-10-1-12 0-12 1z"/>
      <circle class="cls-92" cx="426.6" cy="258.1" r="29.3"/>
      <path class="cls-45" d="M427 272h-13a3 3 0 01-3-3v-19a3 3 0 013-3h5l3-2a1 1 0 010-1h9a1 1 0 010 1l3 2h5a3 3 0 013 3v19a3 3 0 01-3 3zm0-20a8 8 0 107 8 8 8 0 00-7-8z"/>
      <path class="cls-45" d="M427 255a5 5 0 11-5 5 5 5 0 015-5z"/>
      <circle class="cls-92" cx="515.7" cy="483.2" r="29.3"/>
      <path class="cls-45" d="M530 480a13 13 0 01-3 6l-10 15h-2l-11-15c-6-8 0-20 10-21 8-1 16 5 16 15zm-8-1a6 6 0 00-12-1 6 6 0 006 7 6 6 0 006-6z"/>
      <circle class="cls-92" cx="826.1" cy="521.7" r="29.3"/>
      <path class="cls-45" d="M816 518l11-6a1 1 0 001-1 5 5 0 014-5 5 5 0 015 5 5 5 0 01-4 5 4 4 0 01-3-1 1 1 0 00-2 0l-10 6a1 1 0 000 2l11 6a5 5 0 016-1 5 5 0 012 6 5 5 0 01-5 3 5 5 0 01-4-4 1 1 0 00-1-2l-10-6a1 1 0 00-1 0 5 5 0 01-7 0 5 5 0 010-7 5 5 0 017 0z"/>
      <path d="M841 238l76 145-171 99-76-147a5 5 0 00-6-3l168-97a6 6 0 019 3z" fill="url(#linear-gradient-77)"/>
    </g>
  </g>
</svg>
